<svg xmlns="http://www.w3.org/2000/svg" data-name="Layer 1" viewBox="0 0 512 512" id="acorn"><path fill="#e37626" d="M275.10043,231.7238v30.46991a186.5852,186.5852,0,0,1-122.02,174.87012,186.48865,186.48865,0,0,1-122.03-174.87012V231.7238l122.03,9.99994Z"></path><path fill="#8b6847" d="M298.08041,210.54375a31.19871,31.19871,0,0,1-15.52,26.97l-70.47-31.17-1.33,3.18-8.26,19.82995q-2.4452,6.135-4.44007,12.37h-158.8a31.18029,31.18029,0,0,1-31.18-31.18,59.71457,59.71457,0,0,1,59.73-59.73h170.54A59.73379,59.73379,0,0,1,298.08041,210.54375Z"></path><path fill="#e37626" d="M171.23851,150.81536H129.35688a130.31014,130.31014,0,0,0,5.55949-37.627,132.861,132.861,0,0,0-2.28306-24.89856,11.2755,11.2755,0,0,1,11.10077-13.35766h18.8078a11.29792,11.29792,0,0,1,11.027,8.8048A132.4327,132.4327,0,0,1,176.7904,114.19,130.28378,130.28378,0,0,1,171.23851,150.81536Z"></path><circle cx="56.167" cy="173.682" r="5.465" fill="#b28966"></circle><circle cx="41.594" cy="218.129" r="5.465" fill="#b28966"></circle><circle cx="71.469" cy="196.27" r="5.465" fill="#b28966"></circle><circle cx="115.916" cy="196.27" r="5.465" fill="#b28966"></circle><circle cx="160.363" cy="196.27" r="5.465" fill="#b28966"></circle><circle cx="182.951" cy="218.858" r="5.465" fill="#b28966"></circle><circle cx="145.79" cy="218.858" r="5.465" fill="#b28966"></circle><circle cx="94.057" cy="218.858" r="5.465" fill="#b28966"></circle><circle cx="101.343" cy="174.411" r="5.465" fill="#b28966"></circle><circle cx="145.79" cy="174.411" r="5.465" fill="#b28966"></circle><path fill="#74563a" d="M282.56039,237.51378a31.00536,31.00536,0,0,1-15.66,4.21h-68.84q1.99494-6.22494,4.44007-12.37l9.59-23.00995Z"></path><path fill="#be6428" d="M275.10043,240.63377v21.55994a186.3079,186.3079,0,0,1-57.68005,134.71008,186.38643,186.38643,0,0,1-19.36-155.18005h68.84A31.19974,31.19974,0,0,0,275.10043,240.63377Z"></path><path fill="#74563a" d="M298.08041,210.54375a31.19871,31.19871,0,0,1-15.52,26.97l-70.47-31.17-1.33,3.18a31.18948,31.18948,0,0,1-10.44006-36.66,59.56824,59.56824,0,0,1,15.27-22.05h22.76A59.73379,59.73379,0,0,1,298.08041,210.54375Z"></path><circle cx="182.951" cy="174.411" r="5.465" fill="#b28966"></circle><circle cx="210.714" cy="190.368" r="5.465" fill="#8b6847"></circle><path fill="#e37626" d="M353.42088,255.58554,242.09306,206.34016l-9.59012,23.01126a186.5016,186.5016,0,0,0,48.4876,207.65263l.00016.00011.00019,0a186.5016,186.5016,0,0,0,178.16769-117.162l9.59011-23.01125Z"></path><path fill="#8b6847" d="M285.00466,167.916H455.545a59.72985,59.72985,0,0,1,59.72985,59.72985v.00009a31.17964,31.17964,0,0,1-31.17964,31.17964H256.45446A31.17964,31.17964,0,0,1,225.27482,227.646v-.0001A59.72984,59.72984,0,0,1,285.00466,167.916Z" transform="rotate(21.764 370.275 213.37)"></path><path fill="#e37626" d="M403.99584,177.89017,365.09959,162.3611a130.31058,130.31058,0,0,0,19.11472-32.88351A132.86178,132.86178,0,0,0,391.326,105.5073a11.27551,11.27551,0,0,1,15.26232-8.28951l17.46715,6.97365a11.29791,11.29791,0,0,1,6.97631,12.26583,132.43308,132.43308,0,0,1-8.29966,29.47684A130.28332,130.28332,0,0,1,403.99584,177.89017Z"></path><circle cx="288.648" cy="156.46" r="5.465" fill="#b28966"></circle><circle cx="258.634" cy="192.336" r="5.465" fill="#b28966"></circle><circle cx="294.484" cy="183.112" r="5.465" fill="#b28966"></circle><circle cx="335.763" cy="199.592" r="5.465" fill="#b28966"></circle><circle cx="377.042" cy="216.073" r="5.465" fill="#b28966"></circle><circle cx="418.321" cy="232.553" r="5.465" fill="#b28966"></circle><circle cx="452.833" cy="246.332" r="5.465" fill="#b28966"></circle><circle cx="430.923" cy="261.906" r="5.465" fill="#b28966"></circle><circle cx="389.644" cy="245.426" r="5.465" fill="#b28966"></circle><circle cx="355.133" cy="231.647" r="5.465" fill="#b28966"></circle><circle cx="307.086" cy="212.465" r="5.465" fill="#b28966"></circle><circle cx="330.334" cy="173.888" r="5.465" fill="#b28966"></circle><circle cx="371.613" cy="190.368" r="5.465" fill="#b28966"></circle><circle cx="406.125" cy="204.147" r="5.465" fill="#b28966"></circle><circle cx="440.637" cy="217.925" r="5.465" fill="#b28966"></circle><circle cx="465.435" cy="275.685" r="5.465" fill="#b28966"></circle></svg>