<svg xmlns="http://www.w3.org/2000/svg" enable-background="new 0 0 512 512" viewBox="0 0 512 512" id="cherry"><path fill="#37b678" d="M98.5,139.4c19.7-25.5,27.7-58.1,22.2-89.8c-31.7-0.5-63.3,13.6-84.8,41.3C16.3,116.4,8.2,149,13.7,180.7
	C45.4,181.3,77,167.1,98.5,139.4z"></path><path fill="#00a653" d="M55.9,90.9c16-20.9,39.2-35,65.1-39.7c-0.1-0.5-0.2-1.1-0.2-1.6c-31.7-0.5-63.3,13.6-84.8,41.3
	C16.3,116.4,8.2,149,13.7,180.7c6.6,0.1,13.2-0.4,19.8-1.6C28.5,147.9,36.6,116,55.9,90.9z"></path><path fill="#e5303e" d="M137.3,504.5H121c-55.8,0-101.1-48-101.1-107.1v0c-0.1-7.8-0.2-65.8,39.6-94.6c0.1-0.1,0.2-0.1,0.3-0.2
	c11.8-8.4,27.4-9.3,40-2.2c8.1,4.5,17.4,6.6,26.7,6c7.8-0.6,15.3-3.1,21.9-7.2c10.3-6.4,23.2-7.4,34.4-2.5c3.9,1.7,7.6,3.7,11.2,6
	c43.1,27.9,44.5,88.6,44.5,94.8v0C238.4,456.5,193.2,504.5,137.3,504.5z"></path><path fill="#b72732" d="M49.9,397.4L49.9,397.4c-0.1-7.8-0.2-65.8,39.6-94.6c0.1-0.1,0.2-0.1,0.3-0.2c2.1-1.5,4.3-2.8,6.7-3.8
	c-12-5.3-26-3.9-36.7,3.8c-0.1,0.1-0.2,0.1-0.3,0.2c-39.8,28.8-39.7,86.8-39.6,94.6l0,0c0,59.2,45.2,107.1,101.1,107.1h16.3
	c2.3,0,4.6-0.1,6.8-0.2C91.5,500.5,49.9,454.1,49.9,397.4z"></path><path fill="#e5303e" d="M426.7,450.5l-15.9,3.7c-54.4,12.5-109.2-24.1-122.5-81.8v0c-1.9-7.6-14.9-64.1,17.4-101.1
	c0.1-0.1,0.1-0.2,0.2-0.2c9.6-10.8,24.6-15.2,38.5-11.1c8.9,2.6,18.4,2.5,27.3-0.2c7.4-2.3,14.2-6.4,19.7-12
	c8.6-8.6,21-12.4,33-10.1c4.2,0.8,8.3,1.9,12.2,3.4c48.2,17.5,63.1,76.4,64.6,82.4v0C514.4,381.2,481.1,438.1,426.7,450.5z"></path><path fill="#b72732" d="M318.3,372.4L318.3,372.4c-1.9-7.6-14.9-64.1,17.4-101.1c0.1-0.1,0.1-0.2,0.2-0.2c3.8-4.3,8.6-7.7,14-9.9
	c-1.9-0.3-3.7-0.7-5.5-1.2c-13.9-4.1-28.9,0.3-38.5,11.1c-0.1,0.1-0.1,0.2-0.2,0.2c-32.3,37-19.3,93.5-17.4,101.1h0
	c12.7,55.4,63.8,91.3,116,83.1C363.7,449,328.5,417,318.3,372.4z"></path><path fill="#00a653" d="M388.3,291.6c-1.3-11.6-3.1-23.2-5.6-34.7c-8.1-37.3-27-92.3-70.7-142c-23-26.2-50.7-48.1-81.3-64.7
	c-15.8-8.6-32.3-16.1-49.4-21.6c-16.2-5.2-33-9-48.8-0.2c-7.1,4-13.1,9.6-17.5,16.4c-0.1,0.1-0.1,0.2-0.2,0.3L59.7,117
	c-1,1.3-1.5,2.9-1.5,4.6c0,4.1,3.4,7.5,7.5,7.5c2.3,0,4.5-1.1,6-2.9c5-6.5,10-13.1,15-19.6c9.1-11.8,18.1-23.7,27.2-35.5
	c3.3-4.3,6.7-8.6,10-12.9c4.6-6.1,9.2-12.8,16-16.6c3.2-1.8,6.6-3,10.2-3.7c-0.9,50-4.6,100-11.1,149.6
	c-6.5,49.6-15.8,98.8-27.8,147.4c-0.1,0.6-0.2,1.2-0.2,1.8c0,4.1,3.4,7.5,7.5,7.5c3.4,0,6.4-2.4,7.3-5.7
	c12.2-49.1,21.6-98.9,28.2-149c6.5-49.7,10.2-99.6,11.2-149.7c54,15.5,99.6,44.1,135.8,85.2c41.5,47.3,59.5,99.7,67.3,135.3
	c2.4,10.9,4.2,22,5.4,33.1c0.4,3.8,3.6,6.7,7.4,6.7c0.3,0,0.5,0,0.8,0C385.8,299.4,388.8,295.7,388.3,291.6z"></path><path fill="#b72732" d="M368.4 301.3c-5.4 0-10.9-.7-16.1-2-4-1-6.4-5.1-5.4-9.1 1-4 5.1-6.4 9.1-5.4 0 0 0 0 0 0 15.5 4 31.9.3 44.1-10.1 3.2-2.7 7.9-2.3 10.6.9s2.3 7.9-.9 10.6c-7.5 6.4-16.4 11-26 13.4C378.7 300.6 373.6 301.3 368.4 301.3zM122.2 347.6c-10.3 0-20.4-2.5-29.5-7.2-3.7-1.9-5.1-6.4-3.3-10.1 1.9-3.7 6.4-5.1 10.1-3.3 0 0 0 0 .1 0 14.2 7.4 31.1 7.4 45.2 0 3.7-1.9 8.2-.5 10.1 3.2s.5 8.2-3.2 10.1l0 0c-8.8 4.5-18.5 7-28.4 7.2C122.9 347.6 122.5 347.6 122.2 347.6z"></path></svg>