<svg xmlns="http://www.w3.org/2000/svg" enable-background="new 0 0 512 512" viewBox="0 0 512 512" id="coconut"><path fill="#ee4267" d="M300.8,244c-3,0-5.7-1.8-6.9-4.5L201.3,28.5c-3.6-8.2-11.7-13.5-20.6-13.5h-69.4c-4.1,0-7.5-3.4-7.5-7.5
	s3.4-7.5,7.5-7.5h69.4C195.5,0,209,8.8,215,22.4l92.6,211.1c1.7,3.8-0.1,8.2-3.9,9.9C302.8,243.8,301.8,244,300.8,244L300.8,244z"></path><path fill="#13ad4c" d="M322.6,144.8l109,101.4c6.6,6.4,10.4,15.2,10.4,24.4v56.6c0,46-15.8,90.6-44.9,126.3
	c-26.5,32.4-66.2,51.2-108.1,51.1l-66,0c-41.9,0.1-81.6-18.6-108.1-51.1C85.8,417.7,70,373.2,70,327.2v-56.6c0-9.2,3.8-18,10.4-24.4
	l102.1-103.7L322.6,144.8z"></path><path fill="#099247" d="M253,504.5c-41.9,0.1-81.6-18.6-108.1-51.1c-29-35.7-44.9-80.3-44.9-126.3v-56.6c0-9.2,3.8-18,10.4-24.4
	l102.1-103.6l-30,0L80.4,246.2c-6.6,6.4-10.4,15.2-10.4,24.4v56.6c0,46,15.8,90.6,44.9,126.3c26.5,32.4,66.2,51.2,108.1,51.1H253z"></path><path fill="#13ad4c" d="M439.1,256.8l-75.7-22.2c-15.2-4.5-31.4-3.9-46.2,1.7l-34,12.7c-17.4,6.5-36.7,6.1-53.9-1.1l-25-10.5
	c-15-6.3-31.7-7.4-47.4-3.1c-28.1,7.8-56.2,15.5-84.3,23.3c0.3-0.7,0.6-1.3,0.9-1.9c0.2-0.4,0.4-0.8,0.6-1.2
	c0.1-0.1,0.1-0.3,0.2-0.4c0.2-0.4,0.5-0.8,0.7-1.2c0.3-0.4,0.5-0.9,0.8-1.3c0.3-0.5,0.7-0.9,1-1.4c0.2-0.3,0.4-0.5,0.7-0.8
	c0.2-0.2,0.3-0.4,0.5-0.6c0.7-0.9,1.5-1.7,2.4-2.5l102.1-103.7l140.9,0.1l108.2,103.6c1.2,1.2,2.3,2.4,3.3,3.7
	c0.3,0.4,0.6,0.8,0.8,1.1c0.1,0.1,0.1,0.2,0.2,0.2c0.2,0.3,0.4,0.6,0.6,1c0.1,0.1,0.2,0.3,0.3,0.5c0.2,0.3,0.4,0.6,0.5,0.9
	c0.1,0.2,0.2,0.3,0.3,0.5c0.3,0.4,0.5,0.9,0.7,1.4c0.2,0.4,0.4,0.9,0.6,1.3C439,256.7,439,256.8,439.1,256.8z"></path><path fill="#fdeb96" d="M439.1,256.8l-75.7-22.2c-15.2-4.5-31.4-3.9-46.2,1.7l-34,12.7c-17.4,6.5-36.7,6.1-53.9-1.1l-25-10.5
	c-15-6.3-31.7-7.4-47.4-3.1c-28.1,7.8-56.2,15.5-84.3,23.3c0.3-0.7,0.6-1.3,0.9-1.9c0.2-0.4,0.4-0.8,0.6-1.2
	c0.1-0.1,0.1-0.3,0.2-0.4c0.2-0.4,0.5-0.8,0.7-1.2c0.3-0.4,0.5-0.9,0.8-1.3c0.3-0.5,0.7-0.9,1-1.4c0.2-0.3,0.4-0.5,0.7-0.8
	c0.2-0.2,0.3-0.4,0.5-0.6c0.7-0.9,1.5-1.7,2.4-2.5l102.1-103.7l140.9,0.1l108.2,103.6c1.2,1.2,2.3,2.4,3.3,3.7
	c0.3,0.4,0.6,0.8,0.8,1.1c0.1,0.1,0.1,0.2,0.2,0.2c0.2,0.3,0.4,0.6,0.6,1c0.1,0.1,0.2,0.3,0.3,0.5c0.2,0.3,0.4,0.6,0.5,0.9
	c0.1,0.2,0.2,0.3,0.3,0.5c0.3,0.4,0.5,0.9,0.7,1.4c0.2,0.4,0.4,0.9,0.6,1.3C439,256.7,439,256.8,439.1,256.8z"></path><path fill="#fdde47" d="M110.4,246.2l102.1-103.6l-30,0L80.4,246.2c-3.3,3.1-5.9,6.9-7.7,11c12.3-3.4,24.5-6.8,36.8-10.2
	C109.8,246.7,110.1,246.5,110.4,246.2z"></path></svg>