<svg xmlns="http://www.w3.org/2000/svg" data-name="Layer 1" viewBox="0 0 512 512" id="cucumber"><path fill="#8ec96d" d="M342.08008,421.23c8.11987,13.44,10.22,29.04,5.47,43.62a57.00091,57.00091,0,0,1-11.89014,20.83,51.205,51.205,0,0,1-3.99,3.95,55.3529,55.3529,0,0,1-9.01,6.57,60.28588,60.28588,0,0,1-9.57983,4.51c-17.14014,6.35-37.55,5.5-55.68006-1.54-13.87-5.39-25.70007-14.93-35.7301-26.51C207.88,456.73,197.51,436.95,189.99,418.88c-39.06006-93.88-40.12-203.91-5.3-299.1C201.56006,73.64,225.54,9.03,282.86,7.53a77.17021,77.17021,0,0,1,30.43,5.26c16.8999,6.71,29.48,19.19,35.67993,34,15.01,35.81-19.84,72.66-32.36,104.91-25.41,65.47-25.97,137.36-4.80994,203.04q1.42492,4.425,2.98,8.81.95983,2.685,1.96,5.36,1.725,4.59,3.59009,9.14A316.69179,316.69179,0,0,0,342.08008,421.23Z"></path><circle cx="263.5" cy="45.5" r="7.5" fill="#058b48"></circle><circle cx="318.5" cy="69.5" r="7.5" fill="#058b48"></circle><circle cx="274.5" cy="98.5" r="7.5" fill="#058b48"></circle><circle cx="196.5" cy="171.5" r="7.5" fill="#058b48"></circle><circle cx="282.5" cy="151.5" r="7.5" fill="#058b48"></circle><circle cx="236.071" cy="109.61" r="7.5" fill="#058b48"></circle><circle cx="189.5" cy="239.5" r="7.5" fill="#058b48"></circle><circle cx="268.5" cy="215.5" r="7.5" fill="#058b48"></circle><circle cx="193.5" cy="307.5" r="7.5" fill="#058b48"></circle><circle cx="225.5" cy="383.5" r="7.5" fill="#058b48"></circle><circle cx="237.5" cy="180.5" r="7.5" fill="#058b48"></circle><circle cx="236.5" cy="263.5" r="7.5" fill="#058b48"></circle><circle cx="271.5" cy="292.5" r="7.5" fill="#058b48"></circle><circle cx="229.5" cy="322.5" r="7.5" fill="#058b48"></circle><circle cx="268.5" cy="356.5" r="7.5" fill="#058b48"></circle><circle cx="232.5" cy="431.5" r="7.5" fill="#058b48"></circle><path fill="#74bf4b" d="M316.74,368.91q-1.00488-2.67-1.96-5.36-1.56006-4.38-2.98-8.81a77.50136,77.50136,0,0,0,1.28,145.97,60.28588,60.28588,0,0,0,9.57983-4.51,55.3529,55.3529,0,0,0,9.01-6.57"></path><circle cx="368.5" cy="428" r="70" fill="#d4e496"></circle><path fill="#8ec96d" d="M368.5,505A77.5,77.5,0,1,1,446,427.5,77.58746,77.58746,0,0,1,368.5,505Zm0-140A62.5,62.5,0,1,0,431,427.5,62.57106,62.57106,0,0,0,368.5,365Z"></path><path fill="#37b678" d="M368.5 408.29736a7.50006 7.50006 0 0 1-7.5-7.5v-15a7.5 7.5 0 0 1 15 0v15A7.50006 7.50006 0 0 1 368.5 408.29736zM387.11377 429.94629a7.50106 7.50106 0 0 1-3.75684-13.99658l12.99073-7.5a7.49993 7.49993 0 0 1 7.5 12.99023l-12.99073 7.5A7.46417 7.46417 0 0 1 387.11377 429.94629zM338.09424 466.70264a7.5 7.5 0 0 1-5.30322-12.80323L343.398 443.293a7.49989 7.49989 0 1 1 10.60644 10.60644l-10.60693 10.60645A7.4767 7.4767 0 0 1 338.09424 466.70264zM349.88623 429.94629a7.46417 7.46417 0 0 1-3.74316-1.00635l-12.99073-7.5a7.49993 7.49993 0 0 1 7.5-12.99023l12.99073 7.5a7.50106 7.50106 0 0 1-3.75684 13.99658zM398.90576 466.70264a7.47464 7.47464 0 0 1-5.30322-2.19678l-10.60693-10.60645A7.49989 7.49989 0 1 1 393.60205 443.293L404.209 453.89941a7.5 7.5 0 0 1-5.30322 12.80323z"></path></svg>