<svg xmlns="http://www.w3.org/2000/svg" data-name="Layer 1" viewBox="0 0 512 512" id="custard-apple"><path fill="#8ec96d" d="M335.26051,501.761c-11.50624,5.18239-27.82919,2.95945-37.93136-6.08672-11.68212-10.461-14.32693-27.28827-13.56851-39.66375.79608-12.98956,6.248-25.21731,14.6051-35.703,7.67625-9.63148,22.35353-22.70944,39.73141-18.70159,12.60748,2.90765,19.15491,14.29782,22.74332,23.27125C371.54456,451.64457,365.4809,488.1493,335.26051,501.761Z"></path><path fill="#74bf4b" d="M335.26054,481.76094c-11.50634,5.18262-27.82922,2.95947-37.93139-6.08642-7.61365-6.81788-11.37329-16.3379-12.86914-25.56934a54.85289,54.85289,0,0,0-.69934,5.90527c-.75843,12.37549,1.88635,29.20264,13.56848,39.66407,10.10217,9.04589,26.42505,11.269,37.93139,6.08642,24.613-11.08594,33.1991-37.35742,29.75611-61.18628C362.46245,457.79878,353.05144,473.74776,335.26054,481.76094Z"></path><path fill="#8ec96d" d="M324.47651,432.69756c5.80578,11.18695,19.99192,19.54588,33.53821,18.702,15.66487-.97584,28.1965-12.5393,35.29194-22.71683,7.44751-10.68255,10.76925-23.64915,10.72949-37.04726-.03652-12.30659-3.42338-31.65-19.54627-39.26165-11.697-5.52219-23.91131-.63941-32.30259,4.17895C327.15648,370.92574,309.22835,403.31536,324.47651,432.69756Z"></path><path fill="#74bf4b" d="M393.30669,408.68282c-7.09546,10.17749-19.62708,21.741-35.292,22.71679-13.54626.84375-27.73242-7.51513-33.5382-18.70215a49.88009,49.88009,0,0,1-4.59388-12.87866,49.13415,49.13415,0,0,0,4.59388,32.87866c5.80578,11.187,19.99194,19.5459,33.5382,18.70215,15.66492-.97583,28.19654-12.5393,35.292-22.71679,7.44751-10.68262,10.76928-23.64917,10.72949-37.04737a68.4414,68.4414,0,0,0-.69348-9.50976A60.43876,60.43876,0,0,1,393.30669,408.68282Z"></path><path fill="#8ec96d" d="M206.90411,501.761c11.50624,5.18239,27.82918,2.95945,37.93135-6.08672,11.68212-10.461,14.32694-27.28827,13.56851-39.66375-.79607-12.98956-6.248-25.21731-14.6051-35.703-7.67625-9.63148-22.35353-22.70944-39.73141-18.70159-12.60748,2.90765-19.1549,14.29782-22.74332,23.27125C170.62005,451.64457,176.68371,488.1493,206.90411,501.761Z"></path><path fill="#74bf4b" d="M257.70464,450.10542c-1.496,9.2312-5.25562,18.75122-12.86915,25.5691-10.10217,9.04589-26.42517,11.269-37.93139,6.08642-17.7909-8.01318-27.20191-23.96216-29.75611-41.186-3.44311,23.82885,5.14307,50.10009,29.75611,61.186,11.50622,5.18262,27.82922,2.95947,37.93139-6.08642,11.68213-10.46143,14.32691-27.28858,13.56849-39.66407A54.84382,54.84382,0,0,0,257.70464,450.10542Z"></path><path fill="#8ec96d" d="M209.6881,432.69756c-5.80577,11.18695-19.99192,19.54588-33.5382,18.702-15.66488-.97584-28.19651-12.5393-35.292-22.71683-7.44751-10.68255-10.76925-23.64915-10.72948-37.04726.03652-12.30659,3.42338-31.65,19.54626-39.26165,11.697-5.52219,23.91132-.63941,32.30259,4.17895C207.00814,370.92574,224.93627,403.31536,209.6881,432.69756Z"></path><path fill="#74bf4b" d="M209.688,412.69746c-5.80566,11.187-19.99194,19.5459-33.53808,18.70215-15.66492-.97583-28.19654-12.5393-35.292-22.71679a60.43834,60.43834,0,0,1-10.036-26.55713,68.43871,68.43871,0,0,0-.69348,9.50976c-.03979,13.3982,3.282,26.36475,10.7295,37.04737,7.09545,10.17749,19.62707,21.741,35.292,22.71679,13.54614.84375,27.73242-7.51513,33.53808-18.70215a49.13493,49.13493,0,0,0,4.594-32.87866A49.876,49.876,0,0,1,209.688,412.69746Z"></path><path fill="#8ec96d" d="M388.75346,369.41332c-11.50624,5.18239-27.82919,2.95945-37.93136-6.08672-11.68211-10.461-14.32693-27.28827-13.56851-39.66375.79608-12.98956,6.248-25.21731,14.6051-35.703,7.67625-9.63148,22.35353-22.70944,39.73142-18.7016,12.60747,2.90766,19.1549,14.29783,22.74331,23.27126C425.03752,319.29685,418.97385,355.80158,388.75346,369.41332Z"></path><path fill="#74bf4b" d="M388.75346,349.41328c-11.50622,5.18238-27.8291,2.95948-37.93139-6.08667-7.61353-6.81787-11.37317-16.33764-12.86914-25.56884a54.841,54.841,0,0,0-.69934,5.905c-.75843,12.37548,1.88635,29.20288,13.56848,39.66381,10.10229,9.04615,26.42517,11.269,37.93139,6.08667,24.613-11.08618,33.19922-37.35742,29.75611-61.186C415.95537,325.45113,406.54436,341.4001,388.75346,349.41328Z"></path><path fill="#8ec96d" d="M288.76248,497.18094c-7.931,7.80906-21.04234,9.59737-30.647,3.26207-11.10686-7.32613-16.43052-23.0133-18.2457-35.2037-1.90524-12.79529-.04585-25.97673,4.40863-38.17013,4.09159-11.2,12.9519-27.436,27.22942-27.74755,10.3582-.226,17.657,9.24267,22.18781,17.08171C307.21075,439.78684,309.59273,476.67044,288.76248,497.18094Z"></path><path fill="#74bf4b" d="M288.7625,477.18086c-7.931,7.80909-21.04236,9.59766-30.647,3.26221-11.10693-7.32617-16.43066-23.01343-18.24585-35.20386-.01574-.1062-.02636-.21313-.04162-.31958a72.24391,72.24391,0,0,0,.04162,20.31958c1.81519,12.19068,7.13892,27.87769,18.24585,35.20386,9.60462,6.33545,22.716,4.54688,30.647-3.26221,13.1958-12.99316,17.06726-32.55566,14.70312-51.0957C301.85478,457.81709,297.22356,468.84981,288.7625,477.18086Z"></path><path fill="#8ec96d" d="M258.00007,430.91538c-5.80577,11.18694-19.99192,19.54588-33.5382,18.702-15.66488-.97585-28.19651-12.53931-35.292-22.71683-7.44751-10.68255-10.76925-23.64916-10.72948-37.04726.03652-12.3066,3.42338-31.65,19.54626-39.26166,11.697-5.52219,23.91132-.6394,32.30259,4.179C255.32011,369.14356,273.24824,401.53318,258.00007,430.91538Z"></path><path fill="#74bf4b" d="M258.00005,410.91524c-5.80567,11.187-19.99195,19.5459-33.53809,18.70215-15.665-.97583-28.19653-12.53931-35.292-22.7168a60.43636,60.43636,0,0,1-10.03614-26.55689,68.43283,68.43283,0,0,0-.69335,9.50953c-.0398,13.39819,3.282,26.36474,10.72949,37.04736,7.09546,10.17749,19.62695,21.741,35.292,22.7168,13.54614.84375,27.73242-7.51514,33.53809-18.70215a49.13545,49.13545,0,0,0,4.59387-32.87866A49.87623,49.87623,0,0,1,258.00005,410.91524Z"></path><path fill="#8ec96d" d="M333.6353,437.19341c-11.50624,5.1824-27.82918,2.95946-37.93135-6.08672-11.68212-10.461-14.32694-27.28827-13.56851-39.66375.79607-12.98955,6.248-25.21731,14.6051-35.703,7.67625-9.63147,22.35353-22.70943,39.73141-18.70159,12.60748,2.90765,19.1549,14.29782,22.74332,23.27125C369.91936,387.077,363.8557,423.58168,333.6353,437.19341Z"></path><path fill="#74bf4b" d="M333.6353,417.19331c-11.50623,5.18238-27.8291,2.95948-37.9314-6.08667-7.61352-6.81787-11.37317-16.33764-12.86914-25.56884a54.85542,54.85542,0,0,0-.69934,5.90527c-.75842,12.37524,1.88635,29.20264,13.56848,39.66357,10.1023,9.04615,26.42517,11.269,37.9314,6.08667,24.613-11.08618,33.19922-37.35717,29.7561-61.186C360.8372,393.23116,351.42619,409.18013,333.6353,417.19331Z"></path><path fill="#8ec96d" d="M297.38709,426.40959c-9.90615,7.80906-26.28263,9.59738-38.27925,3.26207-13.87286-7.32612-20.52231-23.0133-22.78953-35.20369-2.37971-12.79529-.05727-25.97673,5.50654-38.17013,5.11054-11.2,16.17738-27.43605,34.01052-27.74756,12.93776-.226,22.05426,9.24268,27.71338,17.08171C320.42965,369.0155,323.40483,405.89909,297.38709,426.40959Z"></path><path fill="#74bf4b" d="M297.387,406.40962c-9.906,7.80908-26.28247,9.59741-38.27918,3.262-13.87292-7.32618-20.52234-23.01319-22.78955-35.20362-.01977-.10644-.03283-.21338-.05212-.31982a57.999,57.999,0,0,0,.05212,20.31982c2.26721,12.19043,8.91663,27.87744,22.78955,35.20362,11.99671,6.33544,28.37317,4.54711,38.27918-3.262,16.48218-12.99341,21.31775-32.55591,18.36487-51.09594A49.45815,49.45815,0,0,1,297.387,406.40962Z"></path><path fill="#8ec96d" d="M155.17982,372.675c-9.90615,7.80906-26.28263,9.59738-38.27925,3.26207-13.87286-7.32612-20.52231-23.0133-22.78953-35.20369-2.37971-12.79529-.05727-25.97673,5.50654-38.17013,5.11054-11.2,16.17738-27.43605,34.01052-27.74756,12.93776-.226,22.05426,9.24268,27.71338,17.08171C178.22238,315.28087,181.19756,352.16447,155.17982,372.675Z"></path><path fill="#74bf4b" d="M155.17973,352.675c-9.906,7.80909-26.28247,9.59717-38.27917,3.262-13.87293-7.32593-20.52234-23.01319-22.78943-35.20362-.01978-.10644-.033-.21338-.05225-.31982a57.99611,57.99611,0,0,0,.05225,20.31982c2.26709,12.19043,8.9165,27.87769,22.78943,35.20362,11.9967,6.3352,28.37317,4.54712,38.27917-3.262,16.48218-12.9934,21.31775-32.5559,18.36487-51.09594A49.45811,49.45811,0,0,1,155.17973,352.675Z"></path><path fill="#8ec96d" d="M157.1472,280.30344c-12.02353,7.80906-31.90038,9.59738-46.46121,3.26207-16.8381-7.32613-24.90883-23.0133-27.66066-35.20369-2.88835-12.79529-.06951-25.97674,6.68353-38.17014,6.20289-11.2,19.6352-27.436,41.28007-27.74755,15.70313-.226,26.76822,9.24268,33.63694,17.08171C185.115,222.90935,188.72608,259.79294,157.1472,280.30344Z"></path><path fill="#8ec96d" d="M196.98525,355.77047c-9.90616,7.80907-26.28263,9.59738-38.27926,3.26208-13.87285-7.32613-20.52231-23.0133-22.78952-35.2037-2.37971-12.79529-.05727-25.97673,5.50654-38.17013,5.11054-11.2,16.17737-27.436,34.01051-27.74755,12.93777-.226,22.05426,9.24267,27.71338,17.08171C220.02781,298.37638,223.003,335.26,196.98525,355.77047Z"></path><path fill="#74bf4b" d="M196.98527,335.77046c-9.90612,7.80908-26.28259,9.59741-38.27929,3.262-13.87293-7.32618-20.52234-23.01319-22.78943-35.20362-.01978-.10644-.033-.21338-.05225-.31982a57.99611,57.99611,0,0,0,.05225,20.31982c2.26709,12.19043,8.9165,27.87744,22.78943,35.20362,11.9967,6.33544,28.37317,4.54711,38.27929-3.262,16.48206-12.99316,21.31751-32.55566,18.36475-51.0957A49.45793,49.45793,0,0,1,196.98527,335.77046Z"></path><path fill="#8ec96d" d="M215.04656 272.04681c-9.90615 7.80906-26.28263 9.59738-38.27925 3.26207-13.87286-7.32613-20.52231-23.0133-22.78953-35.20369-2.37971-12.79529-.05727-25.97673 5.50654-38.17013 5.11054-11.2 16.17738-27.436 34.01052-27.74756 12.93776-.226 22.05426 9.24268 27.71337 17.08171C238.08912 214.65272 241.0643 251.53631 215.04656 272.04681zM409.923 293.64627c-9.90615 7.80906-26.28263 9.59737-38.27925 3.26207-13.87286-7.32613-20.52231-23.0133-22.78953-35.20369-2.37971-12.79529-.05727-25.97674 5.50654-38.17014 5.11054-11.2 16.17738-27.436 34.01052-27.74755 12.93776-.226 22.05426 9.24268 27.71337 17.08171C432.96556 236.25218 435.94074 273.13577 409.923 293.64627z"></path><path fill="#8ec96d" d="M248.75935,364.509c-10.91648,8.41055-28.96317,10.3366-42.18332,3.51333-15.28774-7.89041-22.61536-24.78586-25.11381-37.9152-2.62242-13.78083-.06312-27.97756,6.06814-41.11014,5.63176-12.0627,17.8273-29.54926,37.47922-29.88477,14.25728-.2434,24.30356,9.95458,30.53984,18.39741C274.152,302.6942,277.43061,342.41871,248.75935,364.509Z"></path><path fill="#74bf4b" d="M248.75932,344.509c-10.9165,8.41064-28.96313,10.33667-42.18335,3.51318-15.28759-7.89014-22.61523-24.78564-25.11377-37.915-.0719-.37793-.125-.75708-.18921-1.13525a60.88026,60.88026,0,0,0,.18921,21.13525c2.49854,13.1294,9.82618,30.0249,25.11377,37.915,13.22022,6.82349,31.26685,4.89746,42.18335-3.51318,17.9458-13.82666,23.37281-34.56177,20.36157-54.31592A53.07928,53.07928,0,0,1,248.75932,344.509Z"></path><path fill="#8ec96d" d="M345.28454,276.61341c-9.90615,7.80906-26.28263,9.59737-38.27925,3.26207-13.87286-7.32613-20.52231-23.0133-22.78953-35.20369-2.37971-12.79529-.05727-25.97674,5.50654-38.17014,5.11054-11.2,16.17738-27.436,34.01052-27.74755,12.93776-.226,22.05426,9.24267,27.71338,17.08171C368.3271,219.21932,371.30228,256.10291,345.28454,276.61341Z"></path><path fill="#8ec96d" d="M344.9436,346.97122c-9.90615,7.80906-26.28262,9.59737-38.27925,3.26207-13.87286-7.32613-20.52231-23.0133-22.78953-35.20369-2.3797-12.7953-.05727-25.97674,5.50654-38.17014,5.11055-11.2,16.17738-27.436,34.01052-27.74755,12.93776-.226,22.05426,9.24267,27.71338,17.08171C367.98616,289.57712,370.96135,326.46072,344.9436,346.97122Z"></path><path fill="#74bf4b" d="M344.94365,326.97115c-9.90625,7.80908-26.28272,9.59741-38.2793,3.2622-13.8728-7.32617-20.52234-23.01342-22.78955-35.20385-.01977-.10645-.033-.21314-.052-.31958a57.99763,57.99763,0,0,0,.052,20.31958c2.26721,12.19043,8.91675,27.87768,22.78955,35.20385,11.99658,6.33521,28.373,4.54688,38.2793-3.2622,16.48205-12.99317,21.31763-32.55591,18.36474-51.096A49.459,49.459,0,0,1,344.94365,326.97115Z"></path><path fill="#8ec96d" d="M297.66809,351.30344c-8.29709,7.80906-22.01352,9.59738-32.06152,3.26207-11.61947-7.32613-17.18885-23.0133-19.0878-35.20369-1.99317-12.79529-.048-25.97674,4.61211-38.17014,4.28043-11.2,13.54967-27.436,28.48615-27.74755,10.83627-.226,18.472,9.24268,23.21187,17.08171C316.96783,293.90935,319.45975,330.79294,297.66809,351.30344Z"></path><path fill="#74bf4b" d="M297.668,331.30342c-8.297,7.80908-22.01342,9.59741-32.06152,3.26221-11.61938-7.32617-17.18872-23.01343-19.08765-35.20386-.0166-.1062-.02758-.21313-.0437-.31958a69.08448,69.08448,0,0,0,.0437,20.31958c1.89893,12.19043,7.46827,27.87769,19.08765,35.20386,10.0481,6.3352,23.76453,4.54687,32.06152-3.26221,13.80494-12.99316,17.85511-32.55591,15.38184-51.096C311.36455,311.93941,306.5197,322.97212,297.668,331.30342Z"></path><path fill="#8ec96d" d="M280.14469 280.30344c-9.90615 7.80906-26.28263 9.59738-38.27925 3.26207-13.87286-7.32613-20.52231-23.0133-22.78953-35.20369-2.37971-12.79529-.05727-25.97674 5.50654-38.17014 5.11054-11.2 16.17738-27.436 34.01052-27.74755 12.93776-.226 22.05426 9.24268 27.71337 17.08171C303.18725 222.90935 306.16243 259.79294 280.14469 280.30344zM157.1472 280.30344c-12.02353 7.80906-31.90038 9.59738-46.46121 3.26207-16.8381-7.32613-24.90883-23.0133-27.66066-35.20369-2.88835-12.79529-.06951-25.97674 6.68353-38.17014 6.20289-11.2 19.6352-27.436 41.28007-27.74755 15.70313-.226 26.76822 9.24268 33.63694 17.08171C185.115 222.90935 188.72608 259.79294 157.1472 280.30344zM409.923 293.64627c-9.90615 7.80906-26.28263 9.59737-38.27925 3.26207-13.87286-7.32613-20.52231-23.0133-22.78953-35.20369-2.37971-12.79529-.05727-25.97674 5.50654-38.17014 5.11054-11.2 16.17738-27.436 34.01052-27.74755 12.93776-.226 22.05426 9.24268 27.71337 17.08171C432.96556 236.25218 435.94074 273.13577 409.923 293.64627z"></path><path fill="#74bf4b" d="M179.88847 226.66719c-1.91894 12.67188-8.99218 24.7063-22.74121 33.63623-12.02368 7.80908-31.90039 9.59741-46.4613 3.26221-15.91419-6.92432-23.98987-21.31323-27.15222-33.16358a47.42574 47.42574 0 0 0 .49157 17.95972C86.77714 260.5522 94.848 276.23946 111.686 283.56563c14.56091 6.3352 34.43762 4.54687 46.4613-3.26221C179.06865 266.715 184.53349 245.94161 179.88847 226.66719zM428.72124 239.468A49.76921 49.76921 0 0 1 409.923 273.6462c-9.90613 7.80908-26.28259 9.59741-38.2793 3.2622-12.92859-6.82763-19.57922-20.9143-22.26037-32.66748a57.24768 57.24768 0 0 0 .47094 17.46362c2.26709 12.19043 8.91651 27.87769 22.78943 35.20386 11.99671 6.33521 28.37317 4.54688 38.2793-3.2622C428.32194 279.93013 432.74187 258.89449 428.72124 239.468z"></path><path fill="#8ec96d" d="M215.04656 272.04681c-9.90615 7.80906-26.28263 9.59738-38.27925 3.26207-13.87286-7.32613-20.52231-23.0133-22.78953-35.20369-2.37971-12.79529-.05727-25.97673 5.50654-38.17013 5.11054-11.2 16.17738-27.436 34.01052-27.74756 12.93776-.226 22.05426 9.24268 27.71337 17.08171C238.08912 214.65272 241.0643 251.53631 215.04656 272.04681zM345.28454 276.61341c-9.90615 7.80906-26.28263 9.59737-38.27925 3.26207-13.87286-7.32613-20.52231-23.0133-22.78953-35.20369-2.37971-12.79529-.05727-25.97674 5.50654-38.17014 5.11054-11.2 16.17738-27.436 34.01052-27.74755 12.93776-.226 22.05426 9.24267 27.71338 17.08171C368.3271 219.21932 371.30228 256.10291 345.28454 276.61341z"></path><path fill="#74bf4b" d="M232.84477 217.86885a49.76959 49.76959 0 0 1-18.79822 34.178c-9.90612 7.80908-26.28259 9.59741-38.27917 3.262-12.92871-6.82739-19.57935-20.91406-22.2605-32.66723a57.2553 57.2553 0 0 0 .471 17.46362c2.26709 12.19043 8.91662 27.87744 22.78955 35.20361 11.99658 6.33545 28.37305 4.54712 38.27917-3.262C232.44548 258.33077 236.86528 237.29512 232.84477 217.86885zM364.08281 222.4355a49.76979 49.76979 0 0 1-18.79834 34.178c-9.906 7.80908-26.28247 9.59717-38.27918 3.262-12.92858-6.82739-19.57922-20.91406-22.26037-32.66723a57.25547 57.25547 0 0 0 .47082 17.46362c2.26722 12.19019 8.91663 27.87744 22.78955 35.20361 11.99671 6.33521 28.37317 4.54712 38.27918-3.262C363.68339 262.89742 368.10332 241.86177 364.08281 222.4355z"></path><path fill="#8ec96d" d="M280.14469,280.30344c-9.90615,7.80906-26.28263,9.59738-38.27925,3.26207-13.87286-7.32613-20.52231-23.0133-22.78953-35.20369-2.37971-12.79529-.05727-25.97674,5.50654-38.17014,5.11054-11.2,16.17738-27.436,34.01052-27.74755,12.93776-.226,22.05426,9.24268,27.71337,17.08171C303.18725,222.90935,306.16243,259.79294,280.14469,280.30344Z"></path><path fill="#74bf4b" d="M297.94292,226.12544a49.76918,49.76918,0,0,1-18.79822,34.178c-9.90613,7.80908-26.28259,9.59741-38.27918,3.26221-12.92871-6.82764-19.57934-20.91431-22.26049-32.66748a57.25529,57.25529,0,0,0,.47094,17.46362c2.26709,12.19043,8.91663,27.87769,22.78955,35.20386,11.99659,6.3352,28.373,4.54687,38.27918-3.26221C297.54362,266.58736,301.96342,245.55171,297.94292,226.12544Z"></path><path fill="#8ec96d" d="M386.2924,209.81939c12.5647,1.217,27.30589-6.12329,33.959-17.92968,7.69369-13.65286,4.77939-30.43577.076-41.91149-4.93681-12.04514-14.03719-21.8756-25.32759-29.12466-10.37061-6.65851-28.48071-14.3352-43.64608-4.96631-11.00232,6.797-13.53449,19.683-14.04287,29.33128C335.79441,173.99907,353.29185,206.62243,386.2924,209.81939Z"></path><path fill="#74bf4b" d="M420.25151,171.88985c-6.6532,11.80615-21.39441,19.14648-33.95911,17.92944-27.87365-2.70019-44.68542-26.3938-48.32312-51.03345a64.098,64.098,0,0,0-.65844,6.43262c-1.51636,28.78052,15.981,61.40381,48.98156,64.60083,12.5647,1.217,27.30591-6.12329,33.95911-17.92944,5.26965-9.35157,5.56165-20.1709,3.71191-29.74805A35.85053,35.85053,0,0,1,420.25151,171.88985Z"></path><path fill="#b28966" d="M263.258,130.7837q-11.5-2.83264-23-5.665A163.48255,163.48255,0,0,0,216.22167,30.798,15.00328,15.00328,0,0,1,228.715,7.86559L254.534,7.495a14.98935,14.98935,0,0,1,15.21324,14.64271c.30138,13.80843.19518,28.53271-.48922,44.06347C268.21842,89.79322,266.01315,111.42188,263.258,130.7837Z"></path><path fill="#8ec96d" d="M142.55825 211.89906c-13.33043.72429-29.33669-7.43011-36.916-19.8325-8.76474-14.34209-6.36294-31.4548-1.83379-43.04265 4.7539-12.16285 14.0346-21.87727 25.75563-28.84923 10.76614-6.404 29.73221-13.52984 46.27507-3.27453 12.00168 7.44012 15.23735 20.77874 16.1823 30.708C194.84014 177.22669 177.5699 209.99626 142.55825 211.89906zM315.53834 225.5582c13.42972 5.39156 32.01392 2.07128 43.1411-8.77082 12.86742-12.53777 15.07471-31.94044 13.602-46.0818-1.54579-14.84307-8.38622-28.59274-18.46849-40.209-9.26089-10.67-26.70749-24.95634-46.41264-19.54129-14.29588 3.92858-21.2378 17.28746-24.90911 27.73749C271.53987 169.86473 280.266 211.397 315.53834 225.5582z"></path><path fill="#74bf4b" d="M191.5684 143.89864c-3.616 24.23974-20.37524 46.44409-49.01013 48.00048-13.33044.72413-29.33679-7.43017-36.91613-19.83251a39.5105 39.5105 0 0 1-4.90186-12.37842c-1.93481 10.14453-1.448 21.98779 4.90186 32.37842 7.57934 12.40234 23.58569 20.55664 36.91613 19.83251 35.0116-1.90283 52.28186-34.67236 49.46314-64.291C191.908 146.41621 191.75908 145.17281 191.5684 143.89864zM371.988 168.3918c-1.44031 10.17676-5.318 20.60962-13.30847 28.39551-11.1272 10.84228-29.71143 14.16235-43.14111 8.771-22.44239-9.01025-34.12317-29.103-36.84156-50.5559-3.48864 27.97241 7.45923 58.75952 36.84156 70.5559 13.42968 5.39136 32.01391 2.07129 43.14111-8.771 12.86743-12.5376 15.07471-31.94043 13.60205-46.08179C372.20073 169.93062 372.09721 169.1606 371.988 168.3918z"></path><path fill="#8ec96d" d="M232.4363,207.82988c-9.90615,7.80906-26.28262,9.59738-38.27925,3.26207-13.87286-7.32612-20.52231-23.01329-22.78953-35.20369-2.3797-12.79529-.05727-25.97673,5.50654-38.17013,5.11055-11.2,16.17738-27.436,34.01052-27.74755,12.93776-.226,22.05426,9.24267,27.71338,17.0817C255.47886,150.43579,258.45405,187.31939,232.4363,207.82988Z"></path><path fill="#74bf4b" d="M232.43632,187.82979c-9.90625,7.80908-26.28271,9.59741-38.27929,3.26221-13.8728-7.32618-20.52222-23.01343-22.78955-35.20362-.01978-.10644-.03284-.21338-.052-.31982a58.00161,58.00161,0,0,0,.052,20.31982c2.26733,12.19019,8.91675,27.87744,22.78955,35.20362,11.99658,6.3352,28.373,4.54687,38.27929-3.26221,16.48194-12.99317,21.31763-32.55567,18.36475-51.0957A49.45842,49.45842,0,0,1,232.43632,187.82979Z"></path><path fill="#8ec96d" d="M289.82567,200.4892c-9.25222,7.80906-24.54764,9.59738-35.75233,3.26207-12.95706-7.32613-19.16756-23.0133-21.28512-35.20369-2.22261-12.79529-.05349-25.97674,5.143-38.17013,4.77318-11.2,15.10946-27.43605,31.76538-27.74756,12.0837-.226,20.59839,9.24268,25.88393,17.08171C311.34711,143.09511,314.1259,179.9787,289.82567,200.4892Z"></path><path fill="#74bf4b" d="M289.82573,180.48921c-9.2522,7.80908-24.54761,9.59741-35.75244,3.262-12.957-7.32618-19.16748-23.01319-21.28516-35.20362-.01843-.10644-.03076-.21338-.04858-.31982a62.03939,62.03939,0,0,0,.04858,20.31982c2.11768,12.19043,8.32813,27.87744,21.28516,35.20362,11.20483,6.33544,26.50024,4.54711,35.75244-3.262,15.394-12.99341,19.9104-32.55566,17.15234-51.09594A50.26008,50.26008,0,0,1,289.82573,180.48921Z"></path></svg>