<svg xmlns="http://www.w3.org/2000/svg" data-name="Layer 1" viewBox="0 0 512 512" id="date-fruit"><path fill="#e37626" d="M258.643,71.76648a7.50129,7.50129,0,0,1-6.39062-11.416c6.32031-10.32617,17.71484-15.77735,28.34375-13.57422A25.5852,25.5852,0,0,1,295.6733,56.746a7.50016,7.50016,0,0,1-12.05859,8.92187,10.62011,10.62011,0,0,0-6.06641-4.2041c-4.38281-.915-9.52441,1.85351-12.501,6.7168A7.49607,7.49607,0,0,1,258.643,71.76648Z"></path><path fill="#e37626" d="M227.854 76.62976A7.50158 7.50158 0 0 1 221.393 65.33191a25.58209 25.58209 0 0 1 13.9375-11.51074c10.34277-3.32129 22.24414.89844 29.62109 10.49609a7.49974 7.49974 0 1 1-11.89257 9.14063c-3.47657-4.52148-8.877-6.72266-13.14258-5.35547a10.62133 10.62133 0 0 0-5.58789 4.82324A7.49607 7.49607 0 0 1 227.854 76.62976zM251.643 162.76648a7.50129 7.50129 0 0 1-6.39062-11.416c6.32128-10.32617 17.71484-15.77735 28.34375-13.57422A25.5852 25.5852 0 0 1 288.6733 147.746a7.50016 7.50016 0 0 1-12.05859 8.92187 10.62011 10.62011 0 0 0-6.06641-4.2041c-4.38378-.915-9.52441 1.85351-12.501 6.7168A7.49607 7.49607 0 0 1 251.643 162.76648z"></path><path fill="#e37626" d="M220.854 167.62976a7.50158 7.50158 0 0 1-6.46094-11.29785 25.58209 25.58209 0 0 1 13.9375-11.51074c10.3418-3.32031 22.24414.89844 29.62109 10.49609a7.49974 7.49974 0 1 1-11.89257 9.14063c-3.47657-4.52246-8.87793-6.72363-13.14258-5.35547a10.62133 10.62133 0 0 0-5.58789 4.82324A7.49607 7.49607 0 0 1 220.854 167.62976zM246.643 233.76648a7.50129 7.50129 0 0 1-6.39062-11.416c6.32128-10.32617 17.71289-15.77637 28.34375-13.57422A25.5852 25.5852 0 0 1 283.6733 218.746a7.50016 7.50016 0 0 1-12.05859 8.92187 10.62011 10.62011 0 0 0-6.06641-4.2041c-4.38086-.91211-9.52441 1.85254-12.501 6.7168A7.49607 7.49607 0 0 1 246.643 233.76648z"></path><path fill="#e37626" d="M210.854 238.62976a7.50158 7.50158 0 0 1-6.46094-11.29785 25.58209 25.58209 0 0 1 13.9375-11.51074c10.34082-3.32031 22.24414.89844 29.62109 10.49609a7.49974 7.49974 0 1 1-11.89257 9.14063c-3.47657-4.52148-8.87891-6.72461-13.14258-5.35547a10.62133 10.62133 0 0 0-5.58789 4.82324A7.49607 7.49607 0 0 1 210.854 238.62976zM283.50827 297.58777a7.503 7.503 0 0 1-6.78614-4.29687 10.6 10.6 0 0 0-5.13476-5.29492c-4.127-1.74512-9.7041-.02735-13.56543 4.16894a7.50011 7.50011 0 0 1-11.03711-10.1582c8.19922-8.90723 20.42871-12.05567 30.43554-7.83008a25.56938 25.56938 0 0 1 12.86426 12.7041 7.50326 7.50326 0 0 1-6.77636 10.707z"></path><path fill="#e37626" d="M221.2358,299.58777a7.50372,7.50372,0,0,1-6.77441-10.71,25.58551,25.58551,0,0,1,12.86328-12.70215c10.00488-4.22265,22.23535-1.07617,30.43457,7.83106a7.50011,7.50011,0,0,1-11.03711,10.1582c-3.86133-4.19531-9.43945-5.91113-13.56445-4.16992a10.61839,10.61839,0,0,0-5.1377,5.29883A7.50016,7.50016,0,0,1,221.2358,299.58777Z"></path><path fill="#e37626" d="M251.51315,309.5868a7.50546,7.50546,0,0,1-7.42578-8.6211,48.83924,48.83924,0,0,0-.83106-19.94726,48.27784,48.27784,0,0,0-2.165-6.19922,80.53631,80.53631,0,0,1-4.0459-12.40332,69.356,69.356,0,0,1-2.542-17.73242c0-16.72657,5.374-25.44532,10.11524-33.1377,4.23144-6.86328,7.88476-12.791,7.88476-25.26562s-3.65332-18.40137-7.88476-25.26465c-4.74121-7.69141-10.11524-16.41016-10.11524-33.13575s5.374-25.44335,10.11524-33.13476c4.23144-6.86328,7.88476-12.79,7.88476-25.26367,0-12.47266-3.65332-18.39942-7.88379-25.26172-4.74218-7.69141-10.11621-16.4082-10.11621-33.13379a7.5,7.5,0,0,1,15,0c0,12.47363,3.65332,18.39941,7.88477,25.26269,4.74121,7.69043,10.11523,16.40821,10.11523,33.13282,0,16.72558-5.374,25.44336-10.11523,33.13476-4.23145,6.86328-7.88477,12.79-7.88477,25.26367,0,12.47461,3.65332,18.40137,7.88477,25.26465,4.74121,7.69141,10.11523,16.41016,10.11523,33.13575,0,16.72656-5.374,25.44433-10.11523,33.13671-4.23047,6.86329-7.88477,12.791-7.88477,25.26661a55.27653,55.27653,0,0,0,2.11035,14.1621,66.6742,66.6742,0,0,0,3.38868,10.36426,62.72892,62.72892,0,0,1,2.748,7.94434,63.71931,63.71931,0,0,1,1.16895,26.05176A7.50235,7.50235,0,0,1,251.51315,309.5868Z"></path><ellipse cx="373.614" cy="118.349" fill="#be6428" rx="45.048" ry="102.5" transform="rotate(-56.407 373.614 118.35)"></ellipse><path fill="#9a5023" d="M398.53854,110.82483c29.9519,19.89429,51.79394,44.17261,60.221,64.55152.07495-.1084.16357-.20557.23657-.31543,13.76538-20.72412-13.30225-62.915-60.45752-94.23609-47.15479-31.321-96.54053-39.91137-110.30567-19.18725-5.022,7.56054-4.60376,17.98.23633,29.68481C302.53634,71.01722,351.63375,79.67005,398.53854,110.82483Z"></path><ellipse cx="150.414" cy="134.842" fill="#be6428" rx="102.5" ry="45.048" transform="rotate(-39.671 150.414 134.842)"></ellipse><path fill="#9a5023" d="M101.51779,200.276c-15.88257-19.15014,6.56518-63.97,50.13842-100.10864,23.3628-19.37646,48.04932-32.312,68.3772-37.20141-21.05127-8.03223-61.37622,6.51391-98.3772,37.20141C78.083,136.306,55.63522,181.12586,71.51779,200.276c7.3667,8.88208,21.69165,10.6709,39.27661,6.44117A21.97726,21.97726,0,0,1,101.51779,200.276Z"></path><ellipse cx="366.614" cy="209.349" fill="#be6428" rx="45.048" ry="102.5" transform="rotate(-56.407 366.614 209.35)"></ellipse><path fill="#9a5023" d="M391.53854,201.82483c29.9519,19.89429,51.79394,44.17261,60.221,64.55152.07495-.1084.16357-.20557.23657-.31543,13.76538-20.72412-13.30225-62.915-60.45752-94.23609-47.15479-31.321-96.54053-39.91137-110.30567-19.18725-5.022,7.56054-4.60376,17.98.23633,29.68481C295.53634,162.01722,344.63375,170.67005,391.53854,201.82483Z"></path><ellipse cx="143.414" cy="225.842" fill="#be6428" rx="102.5" ry="45.048" transform="rotate(-39.671 143.414 225.842)"></ellipse><path fill="#9a5023" d="M94.51779,291.276c-15.88257-19.15014,6.56518-63.97,50.13842-100.10864,23.3628-19.37646,48.04932-32.312,68.3772-37.20141-21.05127-8.03223-61.37622,6.51391-98.3772,37.20141C71.083,227.306,48.63522,272.12586,64.51779,291.276c7.3667,8.88208,21.69165,10.6709,39.27661,6.44117A21.97726,21.97726,0,0,1,94.51779,291.276Z"></path><ellipse cx="361.614" cy="280.349" fill="#be6428" rx="45.048" ry="102.5" transform="rotate(-56.407 361.614 280.35)"></ellipse><path fill="#9a5023" d="M386.53854,242.82483c-47.15479-31.321-96.54053-39.91137-110.30567-19.18725-5.022,7.56054-4.60376,17.98.23633,29.68481,14.06714-20.30517,63.16455-11.65234,110.06934,19.50244,29.9519,19.89429,51.79394,44.17261,60.221,64.55152.07495-.1084.16357-.20557.23657-.31543C460.76144,316.3368,433.69381,274.14588,386.53854,242.82483Z"></path><ellipse cx="133.414" cy="296.842" fill="#be6428" rx="102.5" ry="45.048" transform="rotate(-39.671 133.414 296.842)"></ellipse><path fill="#9a5023" d="M84.51779,362.276c-15.88257-19.15014,6.56518-63.97,50.13842-100.10864,23.3628-19.37646,48.04932-32.312,68.3772-37.20141-21.05127-8.03223-61.37622,6.51391-98.3772,37.20141C61.083,298.306,38.63522,343.12586,54.51779,362.276c7.3667,8.88208,21.69165,10.6709,39.27661,6.44117A21.97726,21.97726,0,0,1,84.51779,362.276Z"></path><ellipse cx="354.823" cy="362.403" fill="#be6428" rx="45.048" ry="102.5" transform="rotate(-45.245 354.823 362.403)"></ellipse><path fill="#9a5023" d="M282.03536,320.23474c17.51685-17.66748,64.30542.32129,104.50464,40.17872,23.08545,22.88867,38.957,48.00268,44.98682,68.59155,10.03979-20.59839-8.47217-62.38794-44.98682-98.59155-40.19922-39.85743-86.98779-57.8462-104.50464-40.17872-7.45727,7.52149-8.38671,20.30225-3.9165,35.56568A20.75644,20.75644,0,0,1,282.03536,320.23474Z"></path><ellipse cx="149.921" cy="364.403" fill="#be6428" rx="102.5" ry="45.048" transform="rotate(-44.755 149.921 364.403)"></ellipse><path fill="#9a5023" d="M107.13375,436.57093c-17.51684-17.66724.87085-64.3,41.07032-104.15747,22.95849-22.76319,48.05786-38.376,68.63452-44.30494-20.63159-9.85327-62.31861,8.29786-98.63452,44.30494C78.0046,372.27088,59.61691,418.90369,77.13375,436.57093c7.5127,7.57715,20.418,8.57837,35.87012,4.126A20.82669,20.82669,0,0,1,107.13375,436.57093Z"></path><ellipse cx="251.085" cy="405.915" fill="#be6428" rx="45.048" ry="102.5" transform="rotate(-.256 251.147 406.204)"></ellipse><path fill="#9a5023" d="M236.03732,406.1073c-.19116-44.709,12.22851-82.779,29.71411-96.86425-4.7312-3.79053-9.81519-5.84986-15.10474-5.82715-24.8789.1062-44.85132,46.08276-44.60937,102.6914.2417,56.60889,20.6062,102.41309,45.48511,102.30664,5.23-.02221,10.24121-2.07861,14.89526-5.82714C248.89523,488.54847,236.22775,450.68055,236.03732,406.1073Z"></path></svg>