<svg xmlns="http://www.w3.org/2000/svg" data-name="Layer 1" viewBox="0 0 512 512" id="dragon-fruit"><path fill="#37b678" d="M428.07776,365.5a97.62918,97.62918,0,0,1-18.07251,5.10034,259.82875,259.82875,0,0,0,12.67114-67.89966l.40137-.20068a106.273,106.273,0,0,0,25.33911-19.35046c19.98462-20.73731,26.28882-44.4209,28.50537-55.9264A84.39648,84.39648,0,0,1,439.07776,253.5a80.11966,80.11966,0,0,1-17.75586,3.74463A255.66772,255.66772,0,0,0,408.20422,200.321c14.68189-20.44909,19.53516-40.12121,21.87354-49.821a155.04675,155.04675,0,0,0,2-62.74011c-.21826,3.55249-2.29,30.06323-25,45.74011a57.56575,57.56575,0,0,1-28.7583,9.8833C355.57,112.32715,325.59021,89.98083,291.79553,80.70508L256.00012,7.3457l-35.96,73.74219c-33.36084,9.52173-62.94189,31.78809-85.42065,62.59155A58.26309,58.26309,0,0,1,104.62463,133.5c-22.85644-15.90454-24.80639-42.33264-25-45.74011a156.98713,156.98713,0,0,0,24.68628,114.39587,256.07932,256.07932,0,0,0-12.47973,55.11109A79.718,79.718,0,0,1,72.92224,253.5a82.92746,82.92746,0,0,1-37.84448-26.27686c2.21655,11.5055,8.52075,35.18909,28.50537,55.9264A106.273,106.273,0,0,0,88.92224,302.5q.78735.27795,1.57471.55615a259.84953,259.84953,0,0,0,12.48291,67.01312A88.24657,88.24657,0,0,1,83.92224,365.5a91.63939,91.63939,0,0,1-37.84448-26.27686,111.785,111.785,0,0,0,84.99536,88.23139c30.52271,44.5711,75.42993,72.739,125.50464,72.739,49.35962,0,93.69458-27.37341,124.18457-70.84381a117.40673,117.40673,0,0,0,85.15991-90.12653A100.52168,100.52168,0,0,1,428.07776,365.5Z"></path><path fill="#00a653" d="M151.07324 427.45459a113.25781 113.25781 0 0 1-56.49023-32.305 111.59366 111.59366 0 0 1-22.2749-34.85218 93.32484 93.32484 0 0 1-26.23047-21.07422 111.785 111.785 0 0 0 84.9956 88.23145c30.52246 44.571 75.42969 72.73889 125.5044 72.73889 3.35547 0 6.68554-.13782 9.9917-.38721C220.5415 496.32813 179.54712 469.03394 151.07324 427.45459zM88.92236 302.5q.78737.27795 1.57471.55615a261.01107 261.01107 0 0 0 10.71631 61.39673c.89184.35681 1.78516.71289 2.709 1.04712A88.25146 88.25146 0 0 0 122.98 370.06934a259.841 259.841 0 0 1-12.48291-67.01319q-.78735-.27795-1.57471-.55615a105.67577 105.67577 0 0 1-47.55078-53.87317 84.52059 84.52059 0 0 1-26.29394-21.40369c2.21679 11.5055 8.521 35.18909 28.50537 55.9264A106.27834 106.27834 0 0 0 88.92236 302.5zM104.311 202.15576A255.36671 255.36671 0 0 0 92.34033 253.292c.19727.06677.38306.14246.582.208a79.71855 79.71855 0 0 0 18.90869 3.76685 256.09381 256.09381 0 0 1 12.48-55.11109 156.48461 156.48461 0 0 1-26.30323-74.07495c-16.62256-15.87207-18.2102-37.27734-18.3833-40.32092A156.98561 156.98561 0 0 0 104.311 202.15576zM154.61963 143.67944C177.09814 112.876 206.6792 90.60962 240.04 81.08789l25.96313-53.2417L256 7.3457 220.04 81.08789c-32.05176 9.14819-60.6106 30.06519-82.73779 59.01A60.38325 60.38325 0 0 0 154.61963 143.67944z"></path><ellipse cx="256.578" cy="288.07" fill="#ee4267" rx="166.5" ry="212.124"></ellipse><path fill="#e5303e" d="M110.07764,288.06958c0-112.874,69.20215-205.14185,156.5-211.73242-3.30909-.24976-6.64136-.3916-10-.3916-91.95533,0-166.5,94.97119-166.5,212.124s74.54467,212.12378,166.5,212.12378c3.35864,0,6.69091-.14172,10-.3916C179.27979,493.21143,110.07764,400.94348,110.07764,288.06958Z"></path><ellipse cx="256.578" cy="288.07" fill="#fff" rx="137.998" ry="175.812"></ellipse><path fill="#e0e0e2" d="M138.57983,288.06958c0-92.81323,56.45264-168.8208,127.99781-175.34912-3.303-.30151-6.63648-.46289-10-.46289-76.21411,0-137.99781,78.71374-137.99781,175.812s61.7837,175.81177,137.99781,175.81177c3.36352,0,6.697-.16138,10-.46265C195.03247,456.89014,138.57983,380.88281,138.57983,288.06958Z"></path><circle cx="189.078" cy="179.5" r="7.5" fill="#58565d"></circle><circle cx="256.578" cy="139.5" r="7.5" fill="#58565d"></circle><circle cx="226.578" cy="230.5" r="7.5" fill="#58565d"></circle><circle cx="317.578" cy="220.5" r="7.5" fill="#58565d"></circle><circle cx="307.578" cy="271.5" r="7.5" fill="#58565d"></circle><circle cx="307.578" cy="333.5" r="7.5" fill="#58565d"></circle><circle cx="257.578" cy="325.5" r="7.5" fill="#58565d"></circle><circle cx="197.578" cy="284.5" r="7.5" fill="#58565d"></circle><circle cx="259.578" cy="274.5" r="7.5" fill="#58565d"></circle><circle cx="269.578" cy="194.5" r="7.5" fill="#58565d"></circle><circle cx="156.578" cy="241.5" r="7.5" fill="#58565d"></circle><circle cx="146.578" cy="313.5" r="7.5" fill="#58565d"></circle><circle cx="166.578" cy="374.5" r="7.5" fill="#58565d"></circle><circle cx="207.578" cy="354.5" r="7.5" fill="#58565d"></circle><circle cx="266.578" cy="385.5" r="7.5" fill="#58565d"></circle><circle cx="226.578" cy="426.5" r="7.5" fill="#58565d"></circle><circle cx="337.578" cy="385.5" r="7.5" fill="#58565d"></circle><circle cx="358.578" cy="344.5" r="7.5" fill="#58565d"></circle><circle cx="307.578" cy="416.5" r="7.5" fill="#58565d"></circle><circle cx="368.578" cy="295.5" r="7.5" fill="#58565d"></circle><circle cx="359.578" cy="245.5" r="7.5" fill="#58565d"></circle><circle cx="326.578" cy="180.5" r="7.5" fill="#58565d"></circle></svg>