<svg xmlns="http://www.w3.org/2000/svg" data-name="Layer 1" viewBox="0 0 512 512" id="fig"><path fill="#37b678" d="M165.93505,147.5l-33,4a91.63933,91.63933,0,0,0,9-43,90.43109,90.43109,0,0,0-7.29395-32.191A14.97842,14.97842,0,0,1,148.4673,55.5h18.23853A15.04205,15.04205,0,0,1,181.1875,66.58374,92.97075,92.97075,0,0,1,165.93505,147.5Z"></path><path fill="#803091" d="M299.3501,353.67A149.04541,149.04541,0,0,1,246.5,467.54c-1.62988,1.38-3.2998,2.72-5,4.04q-2.44482,1.89-5,3.71a148.84824,148.84824,0,0,1-16.4502,10.13l-9.01953,4.78a122.88977,122.88977,0,0,1-115.06054,0l-9.01953-4.78A149.08842,149.08842,0,0,1,7.6499,353.67a129.1991,129.1991,0,0,1,22.68018-73.11l75.33984-109.77a58.015,58.015,0,0,1,95.66016,0L236.5,222.03l5,7.29,5,7.28,30.16992,43.96A129.20425,129.20425,0,0,1,299.3501,353.67Z"></path><path fill="#55296d" d="M299.3501,353.67A149.04541,149.04541,0,0,1,246.5,467.54c-1.62988,1.38-3.2998,2.72-5,4.04a149.062,149.062,0,0,1-57.8501-117.91,129.1991,129.1991,0,0,1,22.68018-73.11L241.5,229.32l5,7.28,30.16992,43.96A129.20425,129.20425,0,0,1,299.3501,353.67Z"></path><path fill="#fdeb96" d="M426.04847,485.42494l-9.01383,4.77555A122.89584,122.89584,0,0,1,359.50008,504.5H359.5a122.896,122.896,0,0,1-57.53452-14.29948l-9.01391-4.77559a149.10445,149.10445,0,0,1-79.30023-131.75549v-.00013a129.1908,129.1908,0,0,1,22.67569-73.1081l75.344-109.77268A58.01117,58.01117,0,0,1,359.5,145.60544h.00006a58.01119,58.01119,0,0,1,47.829,25.18311L482.673,280.56123a129.19085,129.19085,0,0,1,22.67565,73.108v.00022A149.10444,149.10444,0,0,1,426.04847,485.42494Z"></path><path fill="#e5303e" d="M406.21021,449.61536l-6.47706,3.43152a88.31046,88.31046,0,0,1-82.68652,0l-6.47705-3.43152c-8.53906-6.03785-56.67334-41.18543-56.98364-94.677-.113-19.46679,6.15332-33.52526,13.91406-50.43835,3.11646-6.79187,49.89063-106.09058,105-97,5.42358.89465,27,7,51,47,11.54907,17.97266,20.4292,33.45813,26.88989,45.32227,6.01294,11.04187,9.481,18.16149,12,28a99.22715,99.22715,0,0,1,3,29q-1.00012,8.49993-2,17a119.639,119.639,0,0,1-15.54052,36.36743A121.11154,121.11154,0,0,1,406.21021,449.61536Z"></path><ellipse cx="333.5" cy="268.5" fill="#b72732" rx="7.5" ry="12.5"></ellipse><ellipse cx="306.5" cy="298.5" fill="#b72732" rx="7.5" ry="12.5"></ellipse><ellipse cx="291.5" cy="351.5" fill="#b72732" rx="7.5" ry="12.5"></ellipse><ellipse cx="306.5" cy="398.5" fill="#b72732" rx="7.5" ry="12.5"></ellipse><ellipse cx="333.5" cy="423.5" fill="#b72732" rx="7.5" ry="12.5"></ellipse><ellipse cx="364.5" cy="425.5" fill="#b72732" rx="7.5" ry="12.5"></ellipse><ellipse cx="397.5" cy="412.5" fill="#b72732" rx="7.5" ry="12.5"></ellipse><ellipse cx="426.5" cy="383.5" fill="#b72732" rx="7.5" ry="12.5"></ellipse><ellipse cx="426.5" cy="338.5" fill="#b72732" rx="7.5" ry="12.5"></ellipse><ellipse cx="415.5" cy="300.5" fill="#b72732" rx="7.5" ry="12.5"></ellipse><ellipse cx="394.5" cy="268.5" fill="#b72732" rx="7.5" ry="12.5"></ellipse><ellipse cx="364.5" cy="249.5" fill="#b72732" rx="7.5" ry="12.5"></ellipse><ellipse cx="340.5" cy="313.5" fill="#b72732" rx="7.5" ry="12.5"></ellipse><ellipse cx="325.5" cy="356.5" fill="#b72732" rx="7.5" ry="12.5"></ellipse><ellipse cx="351.5" cy="386.5" fill="#b72732" rx="7.5" ry="12.5"></ellipse><ellipse cx="391.5" cy="370.5" fill="#b72732" rx="7.5" ry="12.5"></ellipse><ellipse cx="393.5" cy="325.5" fill="#b72732" rx="7.5" ry="12.5"></ellipse><ellipse cx="367.5" cy="293.5" fill="#b72732" rx="7.5" ry="12.5"></ellipse><ellipse cx="364.5" cy="344.5" fill="#b72732" rx="7.5" ry="12.5"></ellipse></svg>