<svg xmlns="http://www.w3.org/2000/svg" data-name="Layer 1" viewBox="0 0 512 512" id="guava"><path fill="#b28966" d="M156.40283,214.336a7.50236,7.50236,0,0,1-6.54248-11.15625c10.12744-18.147,21.43067-47.12305,17.76758-82.10791a131.33229,131.33229,0,0,0-9.19238-36.24024,7.49986,7.49986,0,0,1,13.874-5.70117,146.319,146.319,0,0,1,10.23633,40.37891c4.07275,38.89013-8.40381,70.94092-19.58692,90.98A7.499,7.499,0,0,1,156.40283,214.336Z"></path><path fill="#8ec96d" d="M330.85,296.75679a143.33107,143.33107,0,0,1-84.85,130.91q-2.475,1.11-5.01,2.12a140.61174,140.61174,0,0,1-18.42993,5.98c-14.92005,3.73-30.52,1.3-44.39014-5.38a20.69019,20.69019,0,0,0-18,0c-13.85986,6.68-29.46,9.11-44.37988,5.38a143.33577,143.33577,0,0,1,10.55994-280.24c11.05993-1.89,22.18005,1.34,31.15,8.08a19.34593,19.34593,0,0,0,23.35,0c8.97009-6.74,20.09-9.97,31.15-8.08a140.91438,140.91438,0,0,1,28.99,8.2c1.68994.66,3.36,1.37,5.01,2.11A143.29683,143.29683,0,0,1,330.85,296.75679Z"></path><path fill="#74bf4b" d="M330.85,296.75679a143.33107,143.33107,0,0,1-84.85,130.91q-2.475,1.11-5.01,2.12a143.39052,143.39052,0,0,1,0-266.06c1.68994.66,3.36,1.37,5.01,2.11A143.29683,143.29683,0,0,1,330.85,296.75679Z"></path><path fill="#fff4ca" d="M396.2147,435.77041c-14.92833,3.72951-30.52591,1.29931-44.38917-5.38569a20.69789,20.69789,0,0,0-18.00046,0c-13.86326,6.685-29.46084,9.1152-44.38917,5.38569A143.27321,143.27321,0,0,1,181.1506,296.75527V296.755A143.22788,143.22788,0,0,1,300.00189,155.5235c11.05672-1.88381,22.18,1.34,31.14873,8.08677a19.37036,19.37036,0,0,0,23.34936,0c8.96873-6.74675,20.092-9.97058,31.14874-8.08677A143.22788,143.22788,0,0,1,504.5,296.755v.00028A143.27321,143.27321,0,0,1,396.2147,435.77041Z"></path><path fill="#f1748e" d="M293.1534 388.87889c-30.42555 2.43936-57.317-21.39274-66.15045-49.11932-4.49579-14.11139-5.43107-29.12945-5.06036-43.93779.42122-16.82618 2.62-34.04732 10.47883-48.92311 10.86195-20.56024 31.63469-34.59882 53.51541-41.12972 16.045-4.78906 33.15221 8.01622 33.15221 24.78233V363.26686C319.089 379.168 306.943 387.77329 293.1534 388.87889zM392.47008 388.5315c21.53232.48407 45.39219-12.38935 57.04209-30.40125 8.43311-13.03841 11.1061-28.9351 12.486-44.41063 2.09965-23.54737 1.35762-48.45333-10.12857-69.10381-6.73744-12.1129-16.92165-22.0198-28.577-29.37869-11.3907-7.19179-26.65132-14.96507-40.22581-9.44879a26.62808 26.62808 0 0 0-16.50514 24.128V362.632a25.79036 25.79036 0 0 0 25.90845 25.89955z"></path><ellipse cx="276.653" cy="236.072" fill="#e0e0e2" rx="5.365" ry="5.376"></ellipse><ellipse cx="298.114" cy="265.461" fill="#e0e0e2" rx="5.365" ry="5.376"></ellipse><ellipse cx="298.114" cy="287.682" fill="#e0e0e2" rx="5.365" ry="5.376"></ellipse><ellipse cx="298.114" cy="309.903" fill="#e0e0e2" rx="5.365" ry="5.376"></ellipse><ellipse cx="298.114" cy="332.125" fill="#e0e0e2" rx="5.365" ry="5.376"></ellipse><ellipse cx="290.961" cy="354.346" fill="#e0e0e2" rx="5.365" ry="5.376"></ellipse><ellipse cx="298.114" cy="242.523" fill="#e0e0e2" rx="5.365" ry="5.376"></ellipse><ellipse cx="260.2" cy="248.257" fill="#e0e0e2" rx="5.365" ry="5.376"></ellipse><ellipse cx="251.615" cy="267.611" fill="#e0e0e2" rx="5.365" ry="5.376"></ellipse><ellipse cx="244.461" cy="289.833" fill="#e0e0e2" rx="5.365" ry="5.376"></ellipse><ellipse cx="244.461" cy="312.054" fill="#e0e0e2" rx="5.365" ry="5.376"></ellipse><ellipse cx="251.615" cy="334.275" fill="#e0e0e2" rx="5.365" ry="5.376"></ellipse><ellipse cx="265.923" cy="356.496" fill="#e0e0e2" rx="5.365" ry="5.376"></ellipse><ellipse cx="408.282" cy="236.072" fill="#e0e0e2" rx="5.365" ry="5.376"></ellipse><ellipse cx="386.821" cy="265.461" fill="#e0e0e2" rx="5.365" ry="5.376"></ellipse><ellipse cx="386.821" cy="287.682" fill="#e0e0e2" rx="5.365" ry="5.376"></ellipse><ellipse cx="386.821" cy="309.903" fill="#e0e0e2" rx="5.365" ry="5.376"></ellipse><ellipse cx="386.821" cy="332.125" fill="#e0e0e2" rx="5.365" ry="5.376"></ellipse><ellipse cx="393.975" cy="354.346" fill="#e0e0e2" rx="5.365" ry="5.376"></ellipse><ellipse cx="386.821" cy="242.523" fill="#e0e0e2" rx="5.365" ry="5.376"></ellipse><ellipse cx="424.736" cy="248.257" fill="#e0e0e2" rx="5.365" ry="5.376"></ellipse><ellipse cx="433.32" cy="267.611" fill="#e0e0e2" rx="5.365" ry="5.376"></ellipse><ellipse cx="440.474" cy="289.833" fill="#e0e0e2" rx="5.365" ry="5.376"></ellipse><ellipse cx="440.474" cy="312.054" fill="#e0e0e2" rx="5.365" ry="5.376"></ellipse><ellipse cx="433.32" cy="334.275" fill="#e0e0e2" rx="5.365" ry="5.376"></ellipse><ellipse cx="419.013" cy="356.496" fill="#e0e0e2" rx="5.365" ry="5.376"></ellipse></svg>