<svg xmlns="http://www.w3.org/2000/svg" data-name="Layer 1" viewBox="0 0 512 512" id="jabuticaba"><path fill="#93509e" d="M222.16016 335.03a107.64092 107.64092 0 1 1-52.83008-92.67A107.56189 107.56189 0 0 1 222.16016 335.03zM505.16016 335.03A107.66272 107.66272 0 1 1 397.5 227.36 107.6588 107.6588 0 0 1 505.16016 335.03z"></path><path fill="#37b678" d="M202.02462,96.69584c33.61838,17.39991,54.045,44.23531,59.10371,72.56351-37.2986,9.0318-79.84051,5.21839-115.40889-13.1908C112.101,138.66861,91.67443,111.83323,86.61573,83.505,123.91433,74.47324,166.45624,78.28665,202.02462,96.69584Z"></path><path fill="#00a653" d="M261.12188,176.76147a7.47042,7.47042,0,0,1-3.4795-.86133L166.1668,127.88061a7.50016,7.50016,0,1,1,6.97265-13.28125L264.615,162.61889a7.50142,7.50142,0,0,1-3.49316,14.14258Z"></path><path fill="#37b678" d="M323.68679,122.06c-33.61837,17.39991-54.045,44.23532-59.1037,72.56351,37.2986,9.0318,79.84051,5.21839,115.40889-13.1908,33.61843-17.39994,54.045-44.23531,59.1037-72.56351C401.79709,99.83735,359.25518,103.65076,323.68679,122.06Z"></path><path fill="#00a653" d="M264.58965,202.12572a7.50142,7.50142,0,0,1-3.49316-14.14258l91.47558-48.01953a7.50016,7.50016,0,1,1,6.97266,13.28125l-91.47559,48.01953A7.47023,7.47023,0,0,1,264.58965,202.12572Z"></path><path fill="#803091" d="M391.81982 335.03a107.53286 107.53286 0 0 1-50.98974 91.54 107.67256 107.67256 0 0 1 0-183.09009A107.56238 107.56238 0 0 1 391.81982 335.03zM222.16016 335.03a107.56189 107.56189 0 0 1-52.83008 92.65991 107.68311 107.68311 0 0 1 0-185.32995A107.59085 107.59085 0 0 1 222.16016 335.03z"></path><circle cx="254.162" cy="335.026" r="107.662" fill="#93509e"></circle><path fill="#00a653" d="M254.283 272.56127a7.5062 7.5062 0 0 1-7.30469-9.22949 310.22621 310.22621 0 0 0 8.15723-82.74512 310.13187 310.13187 0 0 0-20.874-101.06152 7.49968 7.49968 0 0 1 13.98437-5.42383 325.09717 325.09717 0 0 1 21.87988 105.93848 325.30076 325.30076 0 0 1-8.5498 86.74707A7.50462 7.50462 0 0 1 254.283 272.56127zM114.50567 271.85424a7.50677 7.50677 0 0 1-7.29981-9.249 282.27947 282.27947 0 0 0 7.68555-58.51465c.10058-3.97559.11523-8.00586.04492-11.97754a7.5002 7.5002 0 1 1 14.99805-.26563c.07324 4.18457.05761 8.43067-.04688 12.6211a297.43626 297.43626 0 0 1-8.09375 61.63086A7.50438 7.50438 0 0 1 114.50567 271.85424zM397.63653 271.85424a7.5025 7.5025 0 0 1-7.28809-5.75488 297.31921 297.31921 0 0 1-8.09277-61.62989 7.50044 7.50044 0 1 1 14.99609-.3789 282.22052 282.22052 0 0 0 7.68457 58.51465 7.50677 7.50677 0 0 1-7.2998 9.249z"></path><path fill="#803091" d="M114.49981 272.55932a62.52274 62.52274 0 0 1-22.0752-4.01368 7.50035 7.50035 0 1 1 5.2793-14.041 47.55358 47.55358 0 0 0 16.79687 3.05469h.09864a47.55314 47.55314 0 0 0 16.69628-3.05371 7.49944 7.49944 0 0 1 5.2793 14.03906 62.487 62.487 0 0 1-21.94433 4.01465zM254.16192 272.55932a62.48479 62.48479 0 0 1-22.07422-4.01465 7.49944 7.49944 0 1 1 5.27929-14.03906 47.56131 47.56131 0 0 0 16.7959 3.05371h.09864a47.55318 47.55318 0 0 0 16.69628-3.05371 7.49944 7.49944 0 0 1 5.2793 14.03906 62.487 62.487 0 0 1-21.94433 4.01465zM396.49981 272.55932a62.52274 62.52274 0 0 1-22.0752-4.01368 7.50035 7.50035 0 1 1 5.2793-14.041 47.55358 47.55358 0 0 0 16.79687 3.05469h.09864a47.55314 47.55314 0 0 0 16.69628-3.05371 7.49944 7.49944 0 0 1 5.2793 14.03906 62.487 62.487 0 0 1-21.94433 4.01465z"></path></svg>