<svg xmlns="http://www.w3.org/2000/svg" data-name="Layer 1" viewBox="0 0 512 512" id="jambul"><path fill="#37b678" d="M468.34847,168.75365q-5.68506,1.02-11.43018,1.68c-44.46972,5.13-90.96972-6.07-128.79-34.78-40.13965-30.48-62.37012-74.52-65.23975-119.88q-.36036-5.61-.32031-11.24,4.5-.81006,9.03027-1.39c45.19971-5.82,92.68994,5.26,131.18994,34.49,40.77979,30.96,63.06983,75.91,65.35986,122.03C468.30843,162.69365,468.36849,165.72368,468.34847,168.75365Z"></path><path fill="#00a653" d="M468.34847,168.75365q-5.68506,1.02-11.43018,1.68A926.42664,926.42664,0,0,1,354.75814,99.73369a926.51977,926.51977,0,0,1-91.86963-83.96q-.36036-5.61-.32031-11.24,4.5-.81006,9.03027-1.39a907.17922,907.17922,0,0,0,92.50977,84.85,910.06559,910.06559,0,0,0,104.04,71.67C468.30843,162.69365,468.36849,165.72368,468.34847,168.75365Z"></path><path fill="#692b7c" d="M474.14014,416.25c-2.18994,18.21-6.5,37.69-15.54,53.67-6.6499,11.74-15.8501,21.59-28.66016,27.65-25.23974,11.94-51.58984,3.56-75.46-8.99-33.18994-17.44-61.48975-43.86-82.12012-75.21q-3.17945-4.83006-6.11963-9.81c-27.64013-46.91-38.54-103.32-24.26025-156.88a99.06451,99.06451,0,0,1,12.41016-28.31,84.05454,84.05454,0,0,1,5.3999-7.44c16.12988-19.89,40.27978-30.92,68.83008-24.67C425.60986,207.5,485.62988,321.08,474.14014,416.25Z"></path><path fill="#00a653" d="M303.27148,241.99561a7.46943,7.46943,0,0,1-4.55664-1.54737c-53.20507-40.77392-80.5039-101.647-71.24316-158.86426,4.44238-27.45312,17.39258-53.7666,37.44824-76.0957a7.50031,7.50031,0,0,1,11.16016,10.02344c-12.64356,14.07519-28.76953,37.37939-33.80176,68.46875-8.377,51.75879,16.74414,107.15137,65.56055,144.56152a7.50024,7.50024,0,0,1-4.56739,13.45362Z"></path><path fill="#55296d" d="M272.35986,413.37q-3.17945-4.83006-6.11963-9.81c-27.64013-46.91-38.54-103.32-24.26025-156.88a99.06451,99.06451,0,0,1,12.41016-28.31,84.05454,84.05454,0,0,1,5.3999-7.44C297.37988,268.43,299.48,349.45,272.35986,413.37Z"></path><path fill="#692b7c" d="M188.31191,485.80062c-11.13681,7.60512-23.73855,12.38279-37.90573,12.16843-27.93688-.42271-47.9139-19.56788-63.84211-41.3538-56.558-77.35759-58.70337-193.17093,5.33487-266.63692,27.27818-31.29408,69.97006-43.36446,104.40844-15.988,77.79518,61.84255,81.75927,190.211,29.57462,270.52535C215.90091,459.87694,203.46188,475.455,188.31191,485.80062Z"></path><path fill="#00a653" d="M152.33105,213.584a7.50286,7.50286,0,0,1-6.82617-4.3833c-8.58593-18.7788-21.19629-56.62109-9.18652-99.07617C152.15723,54.13232,204.42188,12.11182,269.46777,3.07129a7.50008,7.50008,0,0,1,2.06446,14.85742C212.38086,26.1499,164.97168,63.94141,150.752,114.20752c-10.7041,37.83838.665,71.84961,8.39551,88.75586a7.50391,7.50391,0,0,1-6.81641,10.6206Z"></path><path fill="#55296d" d="M284.02637 246.4624q-.8335 0-1.60157-.02539a7.49994 7.49994 0 0 1 .48047-14.99219 35.989 35.989 0 0 0 30.41114-14.95507 7.5001 7.5001 0 1 1 12.16406 8.77734 50.98066 50.98066 0 0 1-41.4541 21.19531zM152.32813 213.59424a51.32856 51.32856 0 0 1-23.99415-5.99317 7.50012 7.50012 0 0 1 7.03907-13.24609 36.02181 36.02181 0 0 0 33.90527.001 7.50018 7.50018 0 1 1 7.043 13.24414 51.36738 51.36738 0 0 1-22.79492 5.98C153.124 213.58936 152.72363 213.59424 152.32813 213.59424z"></path></svg>