<svg xmlns="http://www.w3.org/2000/svg" data-name="Layer 1" viewBox="0 0 512 512" id="jujube"><path fill="#b28966" d="M163.50384,123.70714A7.5055,7.5055,0,0,1,156.416,113.754a87.3492,87.3492,0,0,0,4.60742-35.01074,88.47694,88.47694,0,0,0-10.60449-35.93213,7.49993,7.49993,0,1,1,13.15234-7.21191A103.56543,103.56543,0,0,1,175.98431,77.6671a102.25747,102.25747,0,0,1-5.39258,40.98926A7.50372,7.50372,0,0,1,163.50384,123.70714Z"></path><path fill="#8ec96d" d="M302.184,309.57518c-6.37012,35.37-23.96045,86.12-53.45019,123.09-1.52979,1.92-3.1001,3.81-4.71,5.65-19.91993,23-44.87012,39.55994-75.02979,41.74-79.39014,5.73-144.44043-91.84-158.04-170.48-17.37012-100.39,42.73975-208.21008,89.54981-210.37,18.08007-.84009,25.45019,14.5,58,17,39.16992,3.01,52.41015-17.36,74-14a38.43215,38.43215,0,0,1,13.68017,5.12,52.35887,52.35887,0,0,1,5.15967,3.47C288.44378,138.90514,316.81389,228.38512,302.184,309.57518Z"></path><path fill="#74bf4b" d="M302.184,309.57518c-6.37012,35.37-23.96045,86.12-53.45019,123.09-1.52979,1.92-3.1001,3.81-4.71,5.65-33.54-34.45007-57.41993-84.61-65.06006-128.78-14.68994-84.87,26-175.04993,67.22021-202.21a52.35887,52.35887,0,0,1,5.15967,3.47C288.44378,138.90514,316.81389,228.38512,302.184,309.57518Z"></path><path fill="#e0e0e2" d="M500.18839,309.53326C489.352,369.68634,446.09,474.29632,367.00553,480.00751c-79.38941,5.73315-144.438-91.83948-158.04371-170.47425-17.37011-100.3916,42.73658-208.21,89.55079-210.3717,18.08471-.83509,25.449,14.50012,58,17,39.16577,3.00793,52.40527-17.35755,74-14C475.96915,109.22906,517.21768,215.00128,500.18839,309.53326Z"></path><ellipse cx="355.004" cy="263.705" fill="#b28966" rx="46.5" ry="88.5"></ellipse><ellipse cx="355.004" cy="243.705" fill="#bc9a7b" rx="46.5" ry="88.5"></ellipse></svg>