<svg xmlns="http://www.w3.org/2000/svg" data-name="Layer 1" viewBox="0 0 512 512" id="kiwi"><path fill="#b28966" d="M503,325c0,100.24-77.01,181.5-172,181.5a163.97922,163.97922,0,0,1-73.86-17.54q-2.50506-1.25994-4.96-2.6C196.84,456.2,159,395.26,159,325c0-47.69,17.43-91.08,45.94-123.47.35-.4.71-.8,1.07-1.2,23.84-26.6,55.22-45.59,90.53-53.17A13.95083,13.95083,0,0,0,307.5,133.5a10.00362,10.00362,0,0,1,10-10h27a10.00361,10.00361,0,0,1,10,10,13.95083,13.95083,0,0,0,10.96,13.66C443.94,164,503,237.22,503,325Z"></path><path fill="#8b6847" d="M342.5,352a152.49847,152.49847,0,0,1-85.36,136.96q-2.50506-1.25994-4.96-2.6C196.84,456.2,159,395.26,159,325c0-47.69,17.43-91.08,45.94-123.47.35-.4.71-.8,1.07-1.2A152.52323,152.52323,0,0,1,342.5,352Z"></path><circle cx="160" cy="352" r="152.5" fill="#acd037"></circle><ellipse cx="160" cy="352" fill="#e0e0e2" rx="64.5" ry="54.5"></ellipse><path fill="#58565d" d="M160 265a7.50006 7.50006 0 0 1-7.5-7.5v-13a7.5 7.5 0 0 1 15 0v13A7.50006 7.50006 0 0 1 160 265zM160 467a7.50006 7.50006 0 0 1-7.5-7.5v-13a7.5 7.5 0 0 1 15 0v13A7.50006 7.50006 0 0 1 160 467zM65.5 359.5h-13a7.5 7.5 0 0 1 0-15h13a7.5 7.5 0 0 1 0 15zM267.5 359.5h-13a7.5 7.5 0 0 1 0-15h13a7.5 7.5 0 0 1 0 15zM100.24951 299.74951a7.47665 7.47665 0 0 1-5.30322-2.19678l-9.19238-9.19238a7.49989 7.49989 0 0 1 10.60644-10.60644l9.19238 9.19238a7.5 7.5 0 0 1-5.30322 12.80322zM228.94287 428.44287a7.47665 7.47665 0 0 1-5.30322-2.19678l-9.19238-9.19238a7.49989 7.49989 0 0 1 10.60644-10.60644l9.19238 9.19238a7.5 7.5 0 0 1-5.30322 12.80322zM91.05713 428.44287a7.5 7.5 0 0 1-5.30322-12.80322l9.19238-9.19238a7.49989 7.49989 0 0 1 10.60644 10.60644l-9.19238 9.19238A7.47665 7.47665 0 0 1 91.05713 428.44287zM219.75049 299.74951a7.5 7.5 0 0 1-5.30322-12.80322l9.19238-9.19238a7.49989 7.49989 0 0 1 10.60644 10.60644l-9.19238 9.19238A7.47665 7.47665 0 0 1 219.75049 299.74951zM207.7959 466.84375a7.50175 7.50175 0 0 1-6.856-4.45166l-5.2876-11.87646a7.49988 7.49988 0 1 1 13.70313-6.10059l5.2876 11.87646a7.5041 7.5041 0 0 1-6.84717 10.55225zM117.50049 264.03662a7.50175 7.50175 0 0 1-6.856-4.45166l-5.2876-11.87646a7.49988 7.49988 0 1 1 13.70313-6.10059l5.2876 11.87647a7.50409 7.50409 0 0 1-6.84717 10.55224zM255.46973 316.99805a7.50126 7.50126 0 0 1-3.05469-14.35352l11.87646-5.2876a7.49988 7.49988 0 0 1 6.10059 13.70313l-11.87646 5.2876A7.46981 7.46981 0 0 1 255.46973 316.99805zM52.6626 407.29346a7.50126 7.50126 0 0 1-3.05469-14.35352l11.87647-5.2876A7.49988 7.49988 0 0 1 67.585 401.35547l-11.87646 5.2876A7.46981 7.46981 0 0 1 52.6626 407.29346zM117.89014 469.19775a7.50436 7.50436 0 0 1-7.00049-10.18994l4.65918-12.13672a7.50017 7.50017 0 1 1 14.0039 5.376l-4.65918 12.13672A7.503 7.503 0 0 1 117.89014 469.19775zM197.44775 261.94287a7.50436 7.50436 0 0 1-7.00048-10.18994l4.65918-12.13672a7.50017 7.50017 0 1 1 14.0039 5.376l-4.65918 12.13672A7.50306 7.50306 0 0 1 197.44775 261.94287zM269.69434 401.61035a7.48433 7.48433 0 0 1-2.68653-.5l-12.13672-4.65918a7.50017 7.50017 0 1 1 5.376-14.0039l12.13672 4.65918a7.5013 7.5013 0 0 1-2.68945 14.5039zM62.43945 322.05273a7.48432 7.48432 0 0 1-2.68652-.5l-12.13672-4.65918a7.50017 7.50017 0 1 1 5.376-14.0039l12.13672 4.65918a7.5013 7.5013 0 0 1-2.68946 14.5039z"></path></svg>