<svg xmlns="http://www.w3.org/2000/svg" data-name="Layer 1" viewBox="0 0 512 512" id="kumquat"><path fill="#f7991d" d="M329.41016,378.12988C327.24023,409.02,317.6499,438.64014,300.66992,461.47c-.81006,1.08008-1.62988,2.15015-2.46972,3.2a110.127,110.127,0,0,1-18.86036,18.64014q-2.35473,1.81494-4.80957,3.49-2.28075,1.55969-4.65039,2.99C254.02,499.3999,235.03027,504.96,212.91016,504.96H152.21C83.93994,504.96,44.7002,449.51,35.58984,387.02c-13.63964-93.68994,4.84034-244.3,102.21-292.58008a100.45011,100.45011,0,0,1,89.51026,0A227.08474,227.08474,0,0,1,302.46,176.03c8.79,16.23,15.12988,33.98,19.6001,52.53.1001.40991.19971.83008.2998,1.24a314.03665,314.03665,0,0,1,5.75,31.97q.07545.58484.14991,1.16992C333.1499,301.66992,331.93994,341.96,329.41016,378.12988Z"></path><path fill="#00a653" d="M181.61426,129.40723a7.50447,7.50447,0,0,1-7.03613-10.09668A145.631,145.631,0,0,0,171.751,10.92871,7.49961,7.49961,0,0,1,185.52832,4.999a160.63209,160.63209,0,0,1,3.124,119.501A7.5037,7.5037,0,0,1,181.61426,129.40723Z"></path><circle cx="365" cy="365.964" r="139" fill="#fdc475"></circle><circle cx="365.495" cy="365.523" r="105" fill="#f7991d"></circle><path fill="#e37626" d="M336.63574 361.68848a7.49355 7.49355 0 0 1-2.90429-.58789l-68.32911-28.73243A7.50041 7.50041 0 0 1 271.2168 318.54l68.3291 28.73242a7.50142 7.50142 0 0 1-2.91016 14.416zM294.63965 450.04688a7.5 7.5 0 0 1-5.543-12.54981l49.5127-54.36328a7.49978 7.49978 0 1 1 11.08984 10.09961l-49.5127 54.36328A7.47935 7.47935 0 0 1 294.63965 450.04688zM413.68457 465.35254a7.49828 7.49828 0 0 1-6.64746-4.01856L372.79492 396.04a7.49967 7.49967 0 0 1 13.28321-6.9668l34.24218 65.294a7.50363 7.50363 0 0 1-6.63574 10.98535zM394.99512 368.667a7.50046 7.50046 0 0 1-.99219-14.93359l73.76855-9.93945a7.49985 7.49985 0 0 1 2.00391 14.86523l-73.76855 9.93945A7.55777 7.55777 0 0 1 394.99512 368.667zM371.57227 343.05957a7.50845 7.50845 0 0 1-7.334-9.10254l15.85742-72.57031a7.49993 7.49993 0 0 1 14.6543 3.20117L378.89258 337.1582A7.50317 7.50317 0 0 1 371.57227 343.05957z"></path><circle cx="364.853" cy="365.772" r="30.5" fill="#e0e0e2"></circle><path fill="#e37626" d="M238.37012,326.64014A104.9731,104.9731,0,0,1,328.10986,261.77a314.03665,314.03665,0,0,0-5.75-31.97c-.10009-.40991-.1997-.83008-.2998-1.24a139.02079,139.02079,0,0,0-52.18018,261.23q2.37012-1.4253,4.65039-2.99,2.45947-1.68018,4.80957-3.49a110.127,110.127,0,0,0,18.86036-18.64014c-.86036-.31982-1.73047-.66992-2.59034-1.02A104.99459,104.99459,0,0,1,238.37012,326.64014Z"></path><path fill="#fdc475" d="M365,227.96a139,139,0,1,0,139,139A139.00328,139.00328,0,0,0,365,227.96Zm97.62012,178.45a104.99557,104.99557,0,1,1-57.24024-137.01977A104.992,104.992,0,0,1,462.62012,406.40991Z"></path><path fill="#e37626" d="M181.61523,129.40723a63.52257,63.52257,0,0,1-30.68164-7.93262,7.50054,7.50054,0,0,1,7.26758-13.123,47.961,47.961,0,0,0,23.84863,6.05371,48.51506,48.51506,0,0,0,22.98047-6.05273,7.49968,7.49968,0,1,1,7.26758,13.12109,63.55382,63.55382,0,0,1-30.11328,7.93164C181.99414,129.40625,181.80371,129.40723,181.61523,129.40723Z"></path></svg>