<svg xmlns="http://www.w3.org/2000/svg" data-name="Layer 1" viewBox="0 0 512 512" id="lemon"><path fill="#fdd402" d="M335.72551,383.99072a253.25094,253.25094,0,0,1-83,55.62989q-3.765,1.545-7.56,2.94006c-47.66,17.58-97.62,18.32-139.85,1.32a65.59537,65.59537,0,0,0-23.75994-4.73l-21.7-.23a35.57075,35.57075,0,0,1-35.03-35.03l-.23-21.71a65.58288,65.58288,0,0,0-4.73-23.75c-28.52-70.83008-7.11-163.41993,59.89-230.41993,64.75-64.74,153.38-86.92,223.19-62.60009a32.40711,32.40711,0,0,0,27.73-2.90992l1.66-1.03a35.959,35.959,0,0,1,44.24,5.5l20.19,20.2a35.91766,35.91766,0,0,1,5.5,44.23l-1.02,1.67a32.36843,32.36843,0,0,0-2.91,27.73q2.28,6.54,4.01,13.29a170.124,170.124,0,0,1,3.45,16.89C415.64549,254.8606,391.44548,328.27075,335.72551,383.99072Z"></path><circle cx="351.955" cy="303.701" r="152.5" fill="#fdeb96"></circle><path fill="#fbbf13" d="M335.72551,383.99072a253.25094,253.25094,0,0,1-83,55.62989,152.52453,152.52453,0,1,1,149.62-265.52991,170.124,170.124,0,0,1,3.45,16.89C415.64549,254.8606,391.44548,328.27075,335.72551,383.99072Z"></path><circle cx="351.955" cy="303.701" r="152.5" fill="#fdde47"></circle><path fill="#fff4ca" d="M351.95549,456.20069c-84.08869,0-152.5-68.41083-152.5-152.5s68.41131-152.5,152.5-152.5,152.5,68.41082,152.5,152.5S436.04418,456.20069,351.95549,456.20069Zm0-289.95066c-75.79049,0-137.45066,61.66017-137.45066,137.45066S276.165,441.15134,351.95549,441.15134s137.45066-61.66017,137.45066-137.45065S427.746,166.25,351.95549,166.25Z"></path><path fill="#fff4ca" d="M354.45549 269.20069L333.91325 195.07a7 7 0 0 1 6.74579-8.86931h27.5929a7 7 0 0 1 6.74579 8.86931zM328.29254 280.03773L261.34867 242.145a7 7 0 0 1-1.50156-11.04155l19.51113-19.51112a7 7 0 0 1 11.04154 1.50156zM317.45549 306.20069L243.3248 326.74292a7 7 0 0 1-8.86931-6.74579V292.40424a7 7 0 0 1 8.86931-6.74579zM328.29254 332.36364L290.39978 399.3075a7 7 0 0 1-11.04154 1.50156l-19.51113-19.51112a7 7 0 0 1 1.50156-11.04155zM354.45549 343.20069l20.54224 74.13068a7 7 0 0 1-6.74579 8.86932H340.659a7 7 0 0 1-6.74579-8.86932zM380.61844 332.36364l66.94387 37.89275a7 7 0 0 1 1.50156 11.04155l-19.51113 19.51112a7 7 0 0 1-11.04155-1.50156zM391.45549 306.20069l74.13068-20.54224a7 7 0 0 1 8.86932 6.74579v27.59289a7 7 0 0 1-8.86932 6.74579zM380.61844 280.03773l37.89275-66.94386a7 7 0 0 1 11.04155-1.50156l19.51113 19.51112a7 7 0 0 1-1.50156 11.04155z"></path></svg>