<svg xmlns="http://www.w3.org/2000/svg" data-name="Layer 1" viewBox="0 0 512 512" id="longan"><path fill="#fdde47" d="M312.43018,313.58062a153.96216,153.96216,0,0,1-.94,17,152.07759,152.07759,0,0,1-53.16015,99.42993q-2.5503,2.16028-5.18994,4.2a152.3467,152.3467,0,1,1,59.29-120.62988Z"></path><path fill="#fbbf13" d="M311.49023,330.58062a152.07759,152.07759,0,0,1-53.16015,99.42993q-2.5503,2.16028-5.18994,4.2a134.55336,134.55336,0,0,1-48.57032-103.62988Z"></path><path fill="#fdde47" d="M504.25,330.58062a134.83756,134.83756,0,0,1-269.67513,0Z"></path><path fill="#e0ccbe" d="M490.11656,330.66818a121.33756,121.33756,0,0,0-242.67513,0Z"></path><path fill="#00a653" d="M160.0918,221.08257A7.5069,7.5069,0,0,1,152.876,211.523a283.92409,283.92409,0,0,0,10.875-82.81347,284.08848,284.08848,0,0,0-10.875-73.07032A7.5,7.5,0,0,1,167.2998,51.522,299.10137,299.10137,0,0,1,178.749,128.45171a298.863,298.863,0,0,1-11.44922,87.18653A7.50193,7.50193,0,0,1,160.0918,221.08257Z"></path><path fill="#fbbf13" d="M160.084,222.08062a85.29076,85.29076,0,0,1-30.13671-5.48047,7.49978,7.49978,0,1,1,5.28125-14.03906,70.36926,70.36926,0,0,0,24.85546,4.51953h.1504a70.40947,70.40947,0,0,0,24.71386-4.51953,7.49944,7.49944,0,0,1,5.2793,14.03906,85.32111,85.32111,0,0,1-29.96191,5.48047Z"></path></svg>