<svg xmlns="http://www.w3.org/2000/svg" data-name="Layer 1" viewBox="0 0 512 512" id="lychee"><path fill="#00a653" d="M252.74512,75.00195a7.504,7.504,0,0,1-6.82227-10.60644,64.98238,64.98238,0,0,0,0-53.791,7.49986,7.49986,0,1,1,13.6543-6.209,79.97916,79.97916,0,0,1,0,66.209A7.50193,7.50193,0,0,1,252.74512,75.00195Z"></path><path fill="#ee4267" d="M428.30017,279.01189,444,263.16781l-16.95291-17.10855a232.98472,232.98472,0,0,0-12.23562-54.23867l5.94556-27.70686-20.43616-4.46621a199.707,199.707,0,0,0-29.79574-40.93635l-2.62134-29.87283L337.7693,91.53145c-1.092.07808-4.47824-2.75821-5.65036-3.435C294.3516,66.29043,245.74805,61.3368,204.53345,76.4364c-2.03874.74693-4.06416,1.52659-6.06884,2.3626q-3.42567,1.42862-6.77854,3.02695c-1.2301.58568-5.49263,3.64809-6.69181,3.38647L156.697,79.02814l-6.7112,31.27537a197.371,197.371,0,0,0-39.80906,52.12134L86.6712,170.37346l8.79034,26.47488a233.81566,233.81566,0,0,0-10.50781,49.21L68,263.16781l15.69936,15.84361a236.28769,236.28769,0,0,0,11.76218,69.32051L86.6712,374.80682l23.50556,7.94861a197.371,197.371,0,0,0,39.80906,52.12134l6.7112,31.27537,28.29724-6.18428a150.43567,150.43567,0,0,0,58.06524,17.51469L262.25868,504.5l20.54171-28.90656a153.86645,153.86645,0,0,0,54.96892-21.94462l30.13448,2.69311,2.62134-29.87282a199.707,199.707,0,0,0,29.79574-40.93635l20.43616-4.46622-5.94556-27.70685A235.53107,235.53107,0,0,0,428.30017,279.01189Z"></path><path fill="#e5303e" d="M214.99414 85.2124c1.19922.2616 5.46191-2.80078 6.6919-3.38647q3.35229-1.59613 6.7788-3.02686c2.0044-.83618 4.02979-1.61572 6.06836-2.36267a143.42327 143.42327 0 0 1 35.40039-7.97571A149.23132 149.23132 0 0 0 204.5332 76.4364c-2.03857.74695-4.064 1.52649-6.06836 2.36267-1.43359.59766-2.85351 1.22595-4.26757 1.86817zM367.76953 91.53149l.36768-.03295-.2334-2.66016-4.17188.3728C365.186 90.26318 367.019 91.58508 367.76953 91.53149zM273.05957 477.48242a150.43483 150.43483 0 0 1-58.06543-17.51465l-20.79883 4.54566a149.185 149.185 0 0 0 48.86426 12.969L262.25879 504.5l15-21.10815zM367.76953 453.64893c-1.25244.80053-2.51709 1.57763-3.7876 2.34253l3.92188.35034.2334-2.66016zM179.98584 434.87671a197.36817 197.36817 0 0 1-39.80908-52.12134l-23.50537-7.94849 8.79-26.47485a236.29079 236.29079 0 0 1-11.76221-69.32056L98 263.16772l16.95361-17.10937a233.797 233.797 0 0 1 10.50782-49.21l-8.79-26.475 23.50537-7.94861a197.37022 197.37022 0 0 1 39.80908-52.12133l5.38623-25.10083a1.08731 1.08731 0 0 1-.37793.00976l-28.29687-6.18432-6.71143 31.27539a197.37022 197.37022 0 0 0-39.80908 52.12133l-23.50537 7.94861 8.79 26.475a233.797 233.797 0 0 0-10.50782 49.21L68 263.16772l15.69922 15.84375A236.29079 236.29079 0 0 0 95.46143 348.332l-8.79 26.47485 23.50537 7.94849a197.36817 197.36817 0 0 0 39.80908 52.12134l6.71143 31.27539 28.29687-6.18433c.14014.0752.28272.14551.42285.22046z"></path><path fill="#e5303e" d="M169.35547 197.67871c-.042 0-.084 0-.126-.001a7.49843 7.49843 0 0 1-5.28906-2.31054l-27.34668-28.542a7.49953 7.49953 0 1 1 10.83008-10.377l22.11035 23.07617 22.86426-22.31152A7.50045 7.50045 0 0 1 202.875 167.94922l-28.28125 27.59766A7.50014 7.50014 0 0 1 169.35547 197.67871zM255.53223 149.09277c-.042 0-.084 0-.126-.001a7.49842 7.49842 0 0 1-5.28906-2.31055l-27.34668-28.542a7.49953 7.49953 0 1 1 10.83008-10.377l22.11035 23.07618 22.86523-22.3125a7.50045 7.50045 0 1 1 10.47656 10.73632l-28.28222 27.59864A7.50016 7.50016 0 0 1 255.53223 149.09277zM341.71 197.67871c-.042 0-.084 0-.126-.001a7.49843 7.49843 0 0 1-5.28906-2.31054l-27.34668-28.542a7.49953 7.49953 0 1 1 10.83008-10.377l22.11035 23.07617 22.86426-22.31152a7.50045 7.50045 0 1 1 10.47656 10.73633l-28.28125 27.59766A7.50012 7.50012 0 0 1 341.71 197.67871zM150.09766 266.6709c-.042 0-.084 0-.126-.001a7.49841 7.49841 0 0 1-5.28906-2.31054l-27.34668-28.542a7.49953 7.49953 0 0 1 10.83008-10.377l22.11035 23.07617 22.86523-22.31152a7.50045 7.50045 0 1 1 10.47656 10.73633l-28.28222 27.59765A7.50012 7.50012 0 0 1 150.09766 266.6709zM255.53223 208.17285c-.042 0-.084 0-.126-.001a7.49842 7.49842 0 0 1-5.28906-2.31055l-27.34668-28.541a7.49953 7.49953 0 0 1 10.83008-10.37695l22.11035 23.07617 22.86523-22.3125a7.50045 7.50045 0 1 1 10.47656 10.73633L260.77051 206.041A7.50016 7.50016 0 0 1 255.53223 208.17285zM360.9668 266.6709c-.042 0-.084 0-.126-.001a7.49841 7.49841 0 0 1-5.28906-2.31054l-27.34668-28.542a7.49953 7.49953 0 0 1 10.83008-10.377l22.11035 23.07617 22.86523-22.31152a7.50045 7.50045 0 1 1 10.47656 10.73633l-28.28222 27.59765A7.50012 7.50012 0 0 1 360.9668 266.6709z"></path><path fill="#e5303e" d="M150.09766 267.64258c-.042 0-.084 0-.126-.001a7.49838 7.49838 0 0 1-5.28906-2.31055l-27.34668-28.542A7.49953 7.49953 0 0 1 128.166 226.41211l22.11035 23.07617 22.86523-22.31152a7.50045 7.50045 0 1 1 10.47656 10.73633l-28.28222 27.59765A7.50012 7.50012 0 0 1 150.09766 267.64258zM360.9668 267.64258c-.042 0-.084 0-.126-.001a7.49838 7.49838 0 0 1-5.28906-2.31055l-27.34668-28.542a7.49953 7.49953 0 0 1 10.83008-10.37695l22.11035 23.07617 22.86523-22.31152a7.50045 7.50045 0 1 1 10.47656 10.73633l-28.28222 27.59765A7.50012 7.50012 0 0 1 360.9668 267.64258zM150.09766 336.63477c-.042 0-.084 0-.126-.001a7.49842 7.49842 0 0 1-5.28906-2.31055l-27.34668-28.542a7.49953 7.49953 0 1 1 10.83008-10.377l22.11035 23.07617L173.1416 296.169a7.50045 7.50045 0 1 1 10.47656 10.73632l-28.28222 27.59766A7.50017 7.50017 0 0 1 150.09766 336.63477zM255.53223 326.335c-.042 0-.084 0-.126-.001a7.49841 7.49841 0 0 1-5.28906-2.31054l-27.34668-28.542a7.49953 7.49953 0 1 1 10.83008-10.377l22.11035 23.07617 22.86523-22.3125a7.50045 7.50045 0 1 1 10.47656 10.73633l-28.28222 27.59864A7.50016 7.50016 0 0 1 255.53223 326.335zM252.53223 385.415c-.042 0-.084 0-.126-.001a7.49841 7.49841 0 0 1-5.28906-2.31054l-27.34668-28.542a7.49953 7.49953 0 0 1 10.83008-10.37695l22.11035 23.07617 22.86523-22.31152a7.50045 7.50045 0 1 1 10.47656 10.73633L257.77051 383.2832A7.50012 7.50012 0 0 1 252.53223 385.415zM255.53223 267.25391c-.042 0-.084 0-.126-.001a7.49838 7.49838 0 0 1-5.28906-2.31055l-27.34668-28.542a7.49953 7.49953 0 0 1 10.83008-10.37695l22.11035 23.07617 22.86523-22.31152a7.50045 7.50045 0 1 1 10.47656 10.73632l-28.28222 27.59766A7.50017 7.50017 0 0 1 255.53223 267.25391zM360.9668 336.63477c-.042 0-.084 0-.126-.001a7.49842 7.49842 0 0 1-5.28906-2.31055l-27.34668-28.542a7.49953 7.49953 0 1 1 10.83008-10.377l22.11035 23.07617L384.01074 296.169a7.50045 7.50045 0 1 1 10.47656 10.73632l-28.28222 27.59766A7.50017 7.50017 0 0 1 360.9668 336.63477zM169.35547 405.627c-.042 0-.084 0-.126-.001a7.49844 7.49844 0 0 1-5.28906-2.31055l-27.34668-28.542a7.49953 7.49953 0 1 1 10.83008-10.377l22.11035 23.07618 22.86426-22.31153A7.50045 7.50045 0 0 1 202.875 375.89746l-28.28125 27.59766A7.50014 7.50014 0 0 1 169.35547 405.627zM255.53223 444.49609c-.042 0-.084 0-.126-.001a7.49842 7.49842 0 0 1-5.28906-2.31055l-27.34668-28.542a7.49953 7.49953 0 1 1 10.83008-10.377l22.11035 23.07617 22.86523-22.3125a7.50045 7.50045 0 1 1 10.47656 10.73633l-28.28222 27.59863A7.50016 7.50016 0 0 1 255.53223 444.49609zM341.71 405.627c-.042 0-.084 0-.126-.001a7.49844 7.49844 0 0 1-5.28906-2.31055l-27.34668-28.542a7.49953 7.49953 0 1 1 10.83008-10.377l22.11035 23.07618 22.86426-22.31153a7.50045 7.50045 0 1 1 10.47656 10.73633l-28.28125 27.59766A7.50012 7.50012 0 0 1 341.71 405.627z"></path></svg>