<svg xmlns="http://www.w3.org/2000/svg" enable-background="new 0 0 512 512" viewBox="0 0 512 512" id="mango"><path fill="#00a653" d="M195.3,11.3c-1.3,2-2.4,4.1-3.4,6.3c-2.5,5.4-4.2,11-5,16.8c-1.6,10.4-0.4,21.2,3.5,31.3
	c1.5,3.9-0.4,8.2-4.3,9.7c-0.9,0.3-1.8,0.5-2.7,0.5c-3.1,0-5.9-1.9-7-4.8c-5.2-13.3-6.4-27.5-4-41.2c0.2-1,0.4-2.1,0.6-3.1
	c0,0,0,0,0,0c1.8-8.1,5-16,9.4-23.3c2.2-3.5,6.8-4.6,10.3-2.4C196.4,3.2,197.5,7.8,195.3,11.3z"></path><path fill="#fdd402" d="M358.6,283.2c-1.9,25-6.9,49.8-14.9,73.6c-11.1,32.9-27.6,63.1-48.4,86.7c-7.5,8.5-15.8,16.3-24.7,23.2
	c-0.7,0.6-1.4,1.1-2.2,1.7c-24.7,18.6-54.2,31.2-84.7,35c-41.9,5.2-119.7-4.7-111.7-63.2c1.8-13,6.5-25.6,7.3-38.8
	c3.3-50-43.6-81.2-60.6-123.8C-0.7,228.4,4.9,174.7,36.5,131.9c43.6-59.1,116.7-62.4,133.9-63.2c15.6-0.8,31.2,0.3,46.6,3.1
	c23.1,4.3,51,13.8,76.5,34.4c40.3,32.6,60.4,81.3,64.9,133.3C359.6,254,359.7,268.7,358.6,283.2z"></path><path fill="#fbbf13" d="M358.4,239.5c-10.6-1.8-21-4.7-31.1-8.4c-5.1-1.9-10.1-4-15-6.4c-15.7-7.5-30.1-17.4-42.9-29.2
	c-1-1-2.1-1.9-3.1-2.9c-4.2-4.1-8.2-8.4-11.9-12.9c-25.3-30.1-38.6-68.5-37.4-107.9c23.1,4.3,51,13.8,76.5,34.4
	C333.8,138.8,354,187.5,358.4,239.5z"></path><path fill="#37b678" d="M400.1,212.9c-0.2,3-0.5,6.1-0.9,9.1c-3.9,0.2-7.7,0.3-11.6,0.3c-20.6-0.2-41-3.9-60.3-11.1
	c-5.1-1.9-10.1-4-15-6.4c-15.7-7.5-30.1-17.4-42.9-29.2c-1-1-2.1-1.9-3.1-2.9c-4.2-4.1-8.2-8.4-11.9-12.9
	c-26.2-31.2-39.5-71.3-37.2-112v0c0.2-3.8,0.6-7.5,1.1-11.2c3-0.2,6.1-0.3,9.1-0.3c45.3-0.3,88.9,16.8,121.8,47.8
	c0.6,0.6,1.2,1.2,1.8,1.8c4.3,4.2,8.4,8.6,12.2,13.2c11.6,14,20.8,29.8,27.2,46.8c1.8,4.9,3.4,9.9,4.8,15
	C399.7,177.7,401.3,195.3,400.1,212.9z"></path><path fill="#00a653" d="M338.6,160.7c-5.3-4.9-10.6-9.9-15.8-15c-5.2-5.1-10.4-10.3-15.5-15.5c-9.9-10.2-19.6-20.6-29.1-31.3
	c-4.4-5-8.7-10-13-15c-10.1-11.9-19.8-24.2-29.3-36.6c-8.7-11.3-16.1-24.5-30.7-28.7c-0.6-0.2-1.3-0.3-2-0.5
	c-4.1-0.9-7.8-0.9-11.3-0.5c-8.2,1-14.2,4.6-16.3,6c-1.2,0.8-2.1,1.9-2.6,3.2c-0.2,1-0.4,2.1-0.6,3.1c0,1.4,0.4,2.9,1.3,4.1
	c2.3,3.4,7,4.3,10.4,1.9c0.1-0.1,0.1-0.1,0.2-0.2c0.8-0.5,1.6-1,2.5-1.4c7.3-3.6,16.7-2.3,22.7,3.4c3.6,3.5,6.4,8.1,9.4,12.1
	c11.4,15.1,23.2,30,35.5,44.5c4.9,5.8,9.9,11.5,15,17.2c8.9,9.9,17.9,19.6,27.1,29.1c5.2,5.3,10.4,10.6,15.7,15.7
	c4.9,4.8,9.9,9.6,15,14.3c19.3,18,39.5,35.2,60.3,51.4c3.9,0,7.7,0,11.6-0.3c0.4-3,0.7-6,0.9-9.1C378.9,196.5,358.3,179,338.6,160.7
	z"></path><path fill="#00a653" d="M363.2 98.9h-93.8v76.5c-1-1-2.1-1.9-3.1-2.9-4.2-4.1-8.2-8.4-11.9-12.9V91.4c0-4.1 3.4-7.5 7.5-7.5h87.2c.6.6 1.2 1.2 1.8 1.8C355.3 89.9 359.4 94.3 363.2 98.9zM395.2 160.7h-67.8v50.4c-5.1-1.9-10.1-4-15-6.4v-51.5c0-4.1 3.4-7.5 7.5-7.5h70.5C392.2 150.7 393.8 155.7 395.2 160.7z"></path><path fill="#fbbf13" d="M343.7,356.8c-11.1,32.9-27.6,63.1-48.4,86.7c-7.5,8.5-15.8,16.3-24.7,23.2c-76.4-54.5-106.9-153.3-74.6-241.4
	c1.5-4.2,6.1-6.3,10.3-4.8c1.1,0.4,2.1,1,2.9,1.9L343.7,356.8z"></path><path fill="#f7991d" d="M230.7,213.8l274,274c-105.3,46-228-2-274-107.3C207.5,327.4,207.5,266.9,230.7,213.8L230.7,213.8z"></path></svg>