<svg xmlns="http://www.w3.org/2000/svg" data-name="Layer 1" viewBox="0 0 512 512" id="mangosteen"><ellipse cx="431" cy="368.057" fill="#e0e0e2" rx="55.257" ry="50.872"></ellipse><path fill="#37b678" d="M183.4187,176.92483q-14.78577,2.046-29.57178,4.0918c6.75586-10.99878,15.81226-29.80811,15.81983-53.6731.00537-16.97876-4.57154-30.14038-8-40a156.31505,156.31505,0,0,0-19.98291-38.83325h52.64941C200.99341,59.59182,208.34839,76.15579,209,96.677c.6062,19.09375-4.83472,33.9226-10,47.99975A182.38935,182.38935,0,0,1,183.4187,176.92483Z"></path><path fill="#93509e" d="M351.97,332.53a171.57505,171.57505,0,0,1-74.24,141.52q-2.7301,1.89-5.55,3.67993A171.9844,171.9844,0,1,1,351.97,332.53Z"></path><ellipse cx="124.704" cy="184.892" fill="#37b678" rx="55.257" ry="50.872"></ellipse><ellipse cx="180" cy="195.951" fill="#37b678" rx="55.257" ry="50.872"></ellipse><ellipse cx="124.704" cy="205.998" fill="#803091" rx="55.257" ry="50.872"></ellipse><ellipse cx="235.704" cy="205.998" fill="#803091" rx="55.257" ry="50.872"></ellipse><ellipse cx="180" cy="217.057" fill="#803091" rx="55.257" ry="50.872"></ellipse><ellipse cx="124.704" cy="185.998" fill="#37b678" rx="55.257" ry="50.872"></ellipse><ellipse cx="235.704" cy="185.998" fill="#37b678" rx="55.257" ry="50.872"></ellipse><ellipse cx="180" cy="197.057" fill="#50bc8b" rx="55.257" ry="50.872"></ellipse><ellipse cx="330" cy="368.057" fill="#e0e0e2" rx="55.257" ry="50.872"></ellipse><path fill="#803091" d="M345.48,379.5a172.231,172.231,0,0,1-67.75,94.55005q-2.7301,1.89-5.55,3.67993A124.77679,124.77679,0,0,1,224.5,379.5Z"></path><path fill="#93509e" d="M504.5,379.5a125,125,0,0,1-250,0Z"></path></svg>