<svg xmlns="http://www.w3.org/2000/svg" data-name="Layer 1" viewBox="0 0 512 512" id="muskmelon"><path fill="#bad540" d="M432.73,293.29a212.01363,212.01363,0,0,1-1.5498,25.72q-1.26051,10.5-3.54,20.69a212.56233,212.56233,0,0,1-165.21,161.73q-2.46021.495-4.94.93a214.53932,214.53932,0,0,1-37.06,3.22c-117.24024,0-212.29-95.04-212.29-212.29,0-117.24,95.0498-212.29,212.29-212.29C337.68018,81,432.73,176.05,432.73,293.29Z"></path><path fill="#faa827" d="M504.85749,319.01474C504.85749,421.73156,421.58906,505,318.87224,505S132.887,421.73156,132.887,319.01474Z"></path><path fill="#00a653" d="M220.44043,151.002a7.50694,7.50694,0,0,1-7.2832-9.31689,275.73439,275.73439,0,0,0,7.85351-81.77735,275.03161,275.03161,0,0,0-7.78711-51.58984,7.5,7.5,0,1,1,14.55274-3.63574,290.0661,290.0661,0,0,1,8.21289,54.41016,290.74271,290.74271,0,0,1-8.27735,86.22265A7.50343,7.50343,0,0,1,220.44043,151.002Z"></path><path fill="#aabc3b" d="M220.47363 151.05957a86.31593 86.31593 0 0 1-37.84472-8.82764 7.49975 7.49975 0 1 1 6.61132-13.46386 70.36342 70.36342 0 0 0 62.37989.0039A7.50013 7.50013 0 1 1 258.249 142.228a86.23275 86.23275 0 0 1-34.45507 8.76611Q222.11377 151.06007 220.47363 151.05957zM431.18018 319.01q-1.26051 10.5-3.54 20.69a212.56233 212.56233 0 0 1-165.21 161.73q-2.46021.495-4.94.93c-87.7705-14.92-154.60009-91.33-154.60009-183.35h46.5498c19.98 50.34 74.85986 86.49 139.43018 86.49 64.56982 0 119.4497-36.15 139.42968-86.49z"></path><path fill="#ffdaa7" d="M179.44224,319.01c19.98,50.34,74.86,86.49,139.43,86.49s119.45-36.15,139.43-86.49Z"></path><path fill="#fdc475" d="M318.87207 413a7.49974 7.49974 0 0 1-7.5-7.5v-21a7.5 7.5 0 0 1 15 0v21A7.49974 7.49974 0 0 1 318.87207 413zM348.87207 410a7.49974 7.49974 0 0 1-7.5-7.5v-21a7.5 7.5 0 0 1 15 0v21A7.49974 7.49974 0 0 1 348.87207 410zM378.87207 401a7.49974 7.49974 0 0 1-7.5-7.5v-21a7.5 7.5 0 0 1 15 0v21A7.49974 7.49974 0 0 1 378.87207 401zM408.87207 386a7.49974 7.49974 0 0 1-7.5-7.5v-21a7.5 7.5 0 0 1 15 0v21A7.49974 7.49974 0 0 1 408.87207 386zM288.87207 410a7.49974 7.49974 0 0 1-7.5-7.5v-21a7.5 7.5 0 0 1 15 0v21A7.49974 7.49974 0 0 1 288.87207 410zM258.87207 401a7.49974 7.49974 0 0 1-7.5-7.5v-21a7.5 7.5 0 0 1 15 0v21A7.49974 7.49974 0 0 1 258.87207 401zM228.87207 386a7.49974 7.49974 0 0 1-7.5-7.5v-21a7.5 7.5 0 0 1 15 0v21A7.49974 7.49974 0 0 1 228.87207 386z"></path><path fill="#faa827" d="M504.85693,319.01238c0,102.72-83.27,185.99-185.98974,185.99-102.71,0-185.98-83.27-185.98-185.99H179.437c19.98,50.34,74.85987,86.49,139.43018,86.49,64.56982,0,119.4497-36.15,139.42969-86.49Z"></path></svg>