<svg xmlns="http://www.w3.org/2000/svg" data-name="Layer 1" viewBox="0 0 512 512" id="palmyra"><path fill="#b28966" d="M331.5,266.15a161.58408,161.58408,0,0,1-74.50977,136.18q-2.86522,1.84506-5.81,3.55A161.31419,161.31419,0,0,1,169.5,427.93c-89.46973,0-162-72.43-162-161.78,0-89.36,72.53027-161.79,162-161.79a162.035,162.035,0,0,1,145.14014,89.83q1.28979,2.595,2.48974,5.23A161.12892,161.12892,0,0,1,331.5,266.15Z"></path><ellipse cx="119.187" cy="166.676" fill="#5dae47" rx="108.652" ry="56.259" transform="rotate(-23.141 119.187 166.676)"></ellipse><ellipse cx="219.813" cy="166.676" fill="#5dae47" rx="56.259" ry="108.652" transform="rotate(-66.859 219.813 166.676)"></ellipse><ellipse cx="174.274" cy="139.719" fill="#74bf4b" rx="56.259" ry="108.652" transform="rotate(-87.051 174.274 139.719)"></ellipse><path fill="#8b6847" d="M331.5,266.15a161.58408,161.58408,0,0,1-74.50977,136.18q-2.86522,1.84506-5.81,3.55A103.19132,103.19132,0,0,1,212.5,325.24V303.48a103.42769,103.42769,0,0,1,88.66016-102.36,23.1832,23.1832,0,0,0,13.25-6.7l.23-.23q1.28979,2.595,2.48974,5.23A161.12892,161.12892,0,0,1,331.5,266.15Z"></path><path fill="#ffdaa7" d="M402.59211,194.42014l-20.785-21.09615a11.66173,11.66173,0,0,0-16.61424,0l-20.785,21.09615a23.21569,23.21569,0,0,1-13.24642,6.70438A103.41814,103.41814,0,0,0,242.5,303.47644V325.245a103.4006,103.4006,0,0,0,103.40059,103.4006h55.19882A103.4006,103.4006,0,0,0,504.5,325.245V303.47644a103.41814,103.41814,0,0,0-88.66147-102.35192A23.21569,23.21569,0,0,1,402.59211,194.42014Z"></path><path fill="#fdc475" d="M373.49219,405.04948a7.50412,7.50412,0,0,1-7.01172-10.16162,231.92255,231.92255,0,0,0,1.50683-160.40918,7.50017,7.50017,0,0,1,14.123-5.05469,246.91478,246.91478,0,0,1-1.60449,170.78321A7.503,7.503,0,0,1,373.49219,405.04948Z"></path></svg>