<svg xmlns="http://www.w3.org/2000/svg" data-name="Layer 1" viewBox="0 0 512 512" id="papaya"><path fill="#37b678" d="M357.65,329.41c0,58.82-28.64,113.73-76.21,145.88L268.55,484a120.23041,120.23041,0,0,1-22.46,11.95q-2.49006,1.005-5.02,1.88a117.98922,117.98922,0,0,1-39.05,6.67H163.3A118.733,118.733,0,0,1,96.77,484q-6.43506-4.35-12.89-8.71C36.33,443.16,7.65,388.27,7.65,329.38a153.43532,153.43532,0,0,1,26.39-86.15A577.74405,577.74405,0,0,0,96.55,122.81a584.81193,584.81193,0,0,0,23.37-77.93c4.94-21.9,23.76-37.38,45.43-37.38h34.62c17.5,0,33.14,10.1,41.12006,25.52a49.46719,49.46719,0,0,1,4.31,11.86c.22.99.45,1.98.69,2.98a582.1703,582.1703,0,0,0,22.68,74.95,578.62276,578.62276,0,0,0,62.77,120.81,152.03976,152.03976,0,0,1,26.1,83.6C357.65,327.95,357.65,328.68,357.65,329.41Z"></path><path fill="#058b48" d="M357.65,329.41c0,58.82-28.64,113.73-76.21,145.88L268.55,484a120.23041,120.23041,0,0,1-22.46,11.95q-2.49006,1.005-5.02,1.88A120.07182,120.07182,0,0,1,213.62,484q-6.45-4.35-12.89-8.71c-47.55-32.13-76.23-87.02-76.23-145.91a153.64391,153.64391,0,0,1,26.39-86.15,578.23157,578.23157,0,0,0,62.5-120.42,584.95078,584.95078,0,0,0,23.38-77.93,49.05777,49.05777,0,0,1,4.32-11.86,49.46719,49.46719,0,0,1,4.31,11.86c.22.99.45,1.98.69,2.98a582.1703,582.1703,0,0,0,22.68,74.95,578.62276,578.62276,0,0,0,62.77,120.81,152.03976,152.03976,0,0,1,26.1,83.6C357.65,327.95,357.65,328.68,357.65,329.41Z"></path><path fill="#f7991d" d="M428.28475,475.29226l-12.88968,8.71049A118.73354,118.73354,0,0,1,348.8681,504.5H310.14339a118.73115,118.73115,0,0,1-66.52531-20.49638l-12.88757-8.70894C183.18014,443.162,154.5,388.26536,154.5,329.37881V329.378a153.50751,153.50751,0,0,1,26.3899-86.1453,578.03862,578.03862,0,0,0,62.50224-120.4195,584.64776,584.64776,0,0,0,23.37553-77.93C271.71059,22.98142,290.525,7.5,312.2006,7.5h34.61132c21.67545,0,40.48986,15.48129,45.43285,37.383a584.65112,584.65112,0,0,0,23.37588,77.93028,578.04988,578.04988,0,0,0,62.76384,120.80442,152.03563,152.03563,0,0,1,26.10233,83.60658v.00014C505.20593,386.86882,476.45066,442.74307,428.28475,475.29226Z"></path><ellipse cx="329.506" cy="311.222" fill="#fbbf13" rx="77.538" ry="127.835"></ellipse><path fill="#d7a528" d="M281.96771,311.22223a143.26692,143.26692,0,0,1,62.53852-118.988,137.922,137.922,0,0,0-15-8.8468c-45.93512,23.24365-77.53852,71.75049-77.53852,127.83484s31.6034,104.59112,77.53852,127.83484a137.92245,137.92245,0,0,0,15-8.84686A143.267,143.267,0,0,1,281.96771,311.22223Z"></path><circle cx="324.506" cy="228.222" r="7.5" fill="#58565d"></circle><circle cx="294.506" cy="259.222" r="7.5" fill="#58565d"></circle><circle cx="284.506" cy="300.222" r="7.5" fill="#58565d"></circle><circle cx="284.506" cy="341.222" r="7.5" fill="#58565d"></circle><circle cx="294.506" cy="372.222" r="7.5" fill="#58565d"></circle><circle cx="314.506" cy="393.222" r="7.5" fill="#58565d"></circle><circle cx="344.506" cy="394.222" r="7.5" fill="#58565d"></circle><circle cx="364.506" cy="373.222" r="7.5" fill="#58565d"></circle><circle cx="374.506" cy="332.222" r="7.5" fill="#58565d"></circle><circle cx="374.506" cy="291.222" r="7.5" fill="#58565d"></circle><circle cx="355.506" cy="258.222" r="7.5" fill="#58565d"></circle><circle cx="349.506" cy="234.222" r="7.5" fill="#58565d"></circle><circle cx="325.506" cy="259.222" r="7.5" fill="#58565d"></circle><circle cx="315.506" cy="290.222" r="7.5" fill="#58565d"></circle><circle cx="346.506" cy="290.222" r="7.5" fill="#58565d"></circle><circle cx="346.506" cy="322.222" r="7.5" fill="#58565d"></circle><circle cx="315.506" cy="322.222" r="7.5" fill="#58565d"></circle><circle cx="315.506" cy="353.222" r="7.5" fill="#58565d"></circle><circle cx="341.506" cy="350.222" r="7.5" fill="#58565d"></circle></svg>