<svg xmlns="http://www.w3.org/2000/svg" data-name="Layer 1" viewBox="0 0 512 512" id="passion-fruit"><path fill="#6f2d49" d="M305.54668,294.00093c0,49.93-19.68994,94.72-50.86987,125.24q-2.46021,2.4-5.01,4.7c-25.55,22.87-57.99,36.56-93.29,36.56-82.37988,0-149.16992-74.54-149.16992-166.5s66.79-166.5,149.16992-166.5c40.35986,0,76.98,17.9,103.84009,46.96,1.3999,1.51,2.76,3.04,4.09985,4.61005C289.85674,208.96089,305.54668,249.43092,305.54668,294.00093Z"></path><path fill="#54233a" d="M305.54668,294.00093c0,49.93-19.68994,94.72-50.86987,125.24q-2.46021,2.4-5.01,4.7c-31.53-28.32-51.71-71.75-51.71-120.44,0-53.93,24.75-101.4,62.26-129.04,1.3999,1.51,2.76,3.04,4.09985,4.61005C289.85674,208.96089,305.54668,249.43092,305.54668,294.00093Z"></path><ellipse cx="366.377" cy="303.501" fill="#6f2d49" rx="138.416" ry="154.5"></ellipse><ellipse cx="366.377" cy="306.001" fill="#eab220" rx="100.789" ry="117.5"></ellipse><ellipse cx="334.377" cy="253.501" fill="#fdeb96" rx="22.274" ry="14.849" transform="rotate(-45 334.377 253.5)"></ellipse><ellipse cx="319.377" cy="319.501" fill="#fdeb96" rx="22.274" ry="14.849" transform="rotate(-45 319.377 319.5)"></ellipse><ellipse cx="410.377" cy="327.501" fill="#fdeb96" rx="14.849" ry="22.274" transform="rotate(-45 410.377 327.5)"></ellipse><ellipse cx="366.377" cy="368.501" fill="#fdeb96" rx="14.849" ry="22.274" transform="rotate(-45 366.377 368.5)"></ellipse><ellipse cx="405.377" cy="256.501" fill="#fdeb96" rx="14.849" ry="22.274" transform="rotate(-45 405.377 256.5)"></ellipse><path fill="#00a653" d="M150.37969,176.00288a7.50619,7.50619,0,0,1-7.19434-9.63085,184.85689,184.85689,0,0,0,7.44629-61.75391,184.64872,184.64872,0,0,0-7.44336-43.479,7.49974,7.49974,0,1,1,14.377-4.27637,199.69063,199.69063,0,0,1,8.04882,47.01465,199.84879,199.84879,0,0,1-8.04589,66.75244A7.50412,7.50412,0,0,1,150.37969,176.00288Z"></path><path fill="#54233a" d="M150.37676,176.00093a82.45683,82.45683,0,0,1-23.10059-3.30029,7.49989,7.49989,0,1,1,4.20117-14.39942,67.79782,67.79782,0,0,0,37.79981-.00048,7.50008,7.50008,0,1,1,4.19922,14.40039A82.4776,82.4776,0,0,1,150.37676,176.00093Z"></path></svg>