<svg xmlns="http://www.w3.org/2000/svg" data-name="Layer 1" viewBox="0 0 512 512" id="pear"><path fill="#8ec96d" d="M323.5,346.5a157.66608,157.66608,0,0,1-77.42,135.6499q-2.49006,1.47-5.04,2.8501A157.53722,157.53722,0,0,1,8.5,346.5,152.16736,152.16736,0,0,1,57.93,234.10986,160.75277,160.75277,0,0,0,97.53,178.73a160.79724,160.79724,0,0,0,11.55-41.79A56.22366,56.22366,0,0,1,164.67,88h2.66a56.22366,56.22366,0,0,1,55.59,48.93994,160.79724,160.79724,0,0,0,11.55,41.79,156.59523,156.59523,0,0,0,7.17,14.57007q2.415,4.34985,5.02,8.38989a163.45552,163.45552,0,0,0,27.41,32.41992A152.19943,152.19943,0,0,1,323.5,346.5Z"></path><path fill="#75bf44" d="M323.5,346.5a157.66608,157.66608,0,0,1-77.42,135.6499q-2.49006,1.47-5.04,2.8501A157.4525,157.4525,0,0,1,159.5,347a152.16736,152.16736,0,0,1,49.43-112.39014,162.00222,162.00222,0,0,0,32.71-41.30981q2.415,4.34985,5.02,8.38989a163.45552,163.45552,0,0,0,27.41,32.41992A152.19943,152.19943,0,0,1,323.5,346.5Z"></path><path fill="#fff4ca" d="M504.5,347a157.5,157.5,0,0,1-315,0,152.16736,152.16736,0,0,1,49.43-112.39014,159.63442,159.63442,0,0,0,51.15-97.16992c.16-1.16992.35-2.31982.57995-3.46a56.18013,56.18013,0,0,1,52.79-45.42993c.74-.04,1.48-.05,2.22-.05h2.66a56.22366,56.22366,0,0,1,55.59,48.93994,159.63442,159.63442,0,0,0,51.15,97.16992A152.19943,152.19943,0,0,1,504.5,347Z"></path><path fill="#fdeb96" d="M360.74,136a104.01027,104.01027,0,0,1-70.08-2.02,56.18013,56.18013,0,0,1,52.79-45.42993A116.46267,116.46267,0,0,1,360.74,136Z"></path><path fill="#37b678" d="M360.74,126c-30.13,9.85986-64.5,5.7-93.24-14.41016a114.45528,114.45528,0,0,1-45.85-68.6997q-1.20006-5.23536-1.9-10.5503c3.07-1.00976,6.19-1.86987,9.34-2.56982,27.74-6.28,58.09-1.08008,83.9,16.98A114.922,114.922,0,0,1,360.74,126Z"></path><path fill="#b28966" d="M165.5,130.002a7.50506,7.50506,0,0,1-7.07422-9.99218,117.61975,117.61975,0,0,0,5.63965-23.499,133.28186,133.28186,0,0,0-.02148-31.20215A187.24608,187.24608,0,0,0,148.64648,9.5459a7.49988,7.49988,0,1,1,13.707-6.0918,202.18948,202.18948,0,0,1,16.60253,60.23731,148.38115,148.38115,0,0,1-.02148,34.79785,132.62821,132.62821,0,0,1-6.36035,26.501A7.50383,7.50383,0,0,1,165.5,130.002Z"></path><path fill="#b28966" d="M166.50635,41.001a7.50083,7.50083,0,0,1-4.43408-13.55469,54.37378,54.37378,0,0,1,35.99218-10.42481c12.67432.95606,24.16553,8.21,29.89551,12.44922A7.49958,7.49958,0,1,1,219.04,41.5293c-4.144-3.06446-12.99561-8.86328-22.10449-9.55078a39.97067,39.97067,0,0,0-26.00782,7.57519A7.4657,7.4657,0,0,1,166.50635,41.001Z"></path><path fill="#58565d" d="M294.95419 312.55442c8.00574-8.00574 36.06244-7.07106 36.06244-7.07106s.93468 28.05669-7.07107 36.06244a20.5 20.5 0 0 1-28.99137-28.99138zM399.04581 312.55442c-8.00574-8.00574-36.06244-7.07106-36.06244-7.07106s-.93468 28.05669 7.07107 36.06244a20.5 20.5 0 1 0 28.99137-28.99138z"></path><path fill="#75bf44" d="M165.98145,130.02637a51.20693,51.20693,0,0,1-18.709-3.54,7.49989,7.49989,0,1,1,5.45508-13.97266,36.32167,36.32167,0,0,0,26.53857.002,7.50038,7.50038,0,0,1,5.46778,13.96875,51.28748,51.28748,0,0,1-16.978,3.51171Q166.86816,130.0254,165.98145,130.02637Z"></path><path fill="#00a653" d="M299.77,89.12988a7.49223,7.49223,0,0,1-10.46,1.77L221.65,42.89014q-1.20006-5.23536-1.9-10.5503c3.07-1.00976,6.19-1.86987,9.34-2.56982l68.9,48.8999A7.50039,7.50039,0,0,1,299.77,89.12988Z"></path></svg>