<svg xmlns="http://www.w3.org/2000/svg" enable-background="new 0 0 512 512" viewBox="0 0 512 512" id="plum"><path fill="#00a653" d="M162.1,193.8c-4.1,0-7.5-3.4-7.5-7.5c0-1.2,0.3-2.4,0.8-3.4c7.2-13.9,14-32.3,17.2-47.6
	c3.7-17.3,2.4-24.8,0.7-29.8c-1.5-4.4-4.5-13.5-11.6-16.2c-7.6-2.9-21.7,4.4-29.3,13.8c-2.6,3.2-7.3,3.7-10.5,1.1
	c-3.2-2.6-3.7-7.3-1.1-10.5c11.9-14.7,32.6-23.7,46.4-18.4c13.6,5.2,18.4,19.3,20.4,25.4c2.3,6.9,4.1,16.8-0.3,37.7
	c-3.6,16.7-10.7,36.3-18.6,51.4C167.5,192.2,164.9,193.8,162.1,193.8z"></path><path fill="#c72327" d="M321,311.3c-5.4,33.4-21,65.4-45.5,88.8c-8.8,8.4-18.7,15.6-29.5,21.4c-1.7,0.9-3.3,1.7-5,2.6
	c-19.9,9.6-41.7,14.6-63.8,14.5h-23.8c-36.4,0-71.9-13.2-98.3-38.5c-24.4-23.4-40.1-55.4-45.5-88.8c-4.1-25.8-2.2-52.9,8.3-76.8
	c1.8-4.2,4-8.3,6.3-12.3c12.2-20.4,30.6-36.4,52.6-45.7c12.7-5.3,26.6-7.4,40.4-6.1c12.2,1.2,24.1,4.5,35.1,9.9
	c8.3,3.9,17.9,3.9,26.1,0c19.8-9.4,41.4-13,62.6-7.9c0,0,0,0,0,0c1.7,0.4,3.4,0.9,5,1.4c2.6,0.8,5.2,1.7,7.8,2.8
	c26.3,11.1,47.3,31.9,58.9,58C323.2,258.4,325.1,285.5,321,311.3z"></path><path fill="#9e1d20" d="M117.1,170.4c-5.7,9.5-12.8,18-21,25.4c-19.7,17.8-45.4,27.3-71.9,26.5c12.2-20.4,30.6-36.4,52.6-45.7
	C89.5,171.2,103.4,169.1,117.1,170.4z"></path><path fill="#37b678" d="M133.2,93.7c0,3.1-0.2,6.1-0.5,9.2c-2.6,28.1-15.7,54.1-36.6,72.9c-23,20.5-51.9,29-79.6,26c-3-0.3-6-0.8-9-1.4
	c0.1-4,0.3-8,0.8-11.9c3.1-27.1,16.1-52,36.3-70.2C67,98.3,94.9,89.8,121.8,92.1C125.7,92.4,129.5,92.9,133.2,93.7z"></path><path fill="#00a653" d="M133.2,93.7c0,3.1-0.2,6.1-0.5,9.2c-43,27.6-82.1,60.8-116.2,98.9c-3-0.3-6-0.8-9-1.4c0.1-4,0.3-8,0.8-11.9
	c33.5-36.9,71.7-69.3,113.5-96.4C125.7,92.4,129.5,92.9,133.2,93.7z"></path><path fill="#9e1d20" d="M321,311.3c-5.4,33.4-21,65.4-45.5,88.8c-8.8,8.4-18.7,15.6-29.5,21.4c-1.7,0.9-3.3,1.7-5,2.6
	c-12.7-6.1-24.3-14.2-34.5-24c-24.4-23.4-40.1-55.4-45.5-88.8c-4.1-25.8-2.2-52.9,8.3-76.8c11.6-26.1,32.6-46.8,58.9-58
	c4.1-1.7,8.4-3.1,12.8-4.2c0,0,0,0,0,0c1.7,0.4,3.4,0.9,5,1.4c2.6,0.8,5.2,1.7,7.8,2.8c26.3,11.1,47.3,31.9,58.9,58
	C323.2,258.4,325.1,285.5,321,311.3z"></path><path fill="#fdde47" d="M357.8,438.6h0.8c36.4,0,71.9-13.2,98.3-38.5c24.4-23.4,40.1-55.4,45.5-88.8c4.1-25.8,2.2-52.9-8.3-76.8
	c-11.6-26.1-32.6-46.8-58.9-58c-25.2-10.5-51.7-7.5-75.4,3.8c-8.3,3.9-17.9,3.9-26.1,0c-23.8-11.3-50.2-14.3-75.4-3.8
	c-26.3,11.1-47.3,31.9-58.9,58c-10.5,23.9-12.4,51-8.3,76.8c5.3,33.4,21,65.4,45.5,88.8c26.4,25.3,61.9,38.5,98.3,38.5H357.8z"></path><path fill="#b28966" d="M346.7,208.2c43.1,21.8,60.3,74.4,38.5,117.5c-7,13.8-17.5,25.5-30.5,33.9c-4.9,3.2-11.2,3.2-16.1,0
	c-40.5-26.2-52.1-80.4-25.9-120.9C321.2,225.7,332.9,215.2,346.7,208.2z"></path><path fill="#8b6847" d="M318.8,286.2c0-28.8,14.2-55.8,37.9-72.1c-3.2-2.2-6.5-4.2-10-5.9c-43.1,21.8-60.3,74.4-38.5,117.5
	c7,13.8,17.5,25.5,30.5,33.9c4.9,3.2,11.2,3.2,16.1,0c0.7-0.4,1.3-0.9,2-1.3C333,342,318.8,315,318.8,286.2z"></path></svg>