<svg xmlns="http://www.w3.org/2000/svg" data-name="Layer 1" viewBox="0 0 512 512" id="pomegranate"><path fill="#e5303e" d="M316.75,285.21c0,50.58-28.16992,95.05005-70.75,120.63-1.6499.99-3.32007,1.96-5.01,2.89A163.10969,163.10969,0,0,1,162,428.83c-85.47,0-154.75-64.3-154.75-143.62,0-65.07,46.62988-120.02,110.56006-137.67A14.59183,14.59183,0,0,0,128.49,135.57a51.91661,51.91661,0,0,0-.22-15.54c-3.87988-23.32-22.1499-35.07-25.04-36.86a66.32456,66.32456,0,0,1,33.37988,9.04,70.968,70.968,0,0,1,14.03028,11.21C153.03,95.17,157.01,88.15,162,83.17c4.99,4.98,8.97,12,11.35986,20.25a70.968,70.968,0,0,1,14.03028-11.21A66.32456,66.32456,0,0,1,220.77,83.17c-2.89014,1.79-21.16016,13.54-25.04,36.86005a51.91661,51.91661,0,0,0-.22,15.54,14.59183,14.59183,0,0,0,10.67993,11.97A159.84587,159.84587,0,0,1,241,161.7c1.68994.94,3.3501,1.9,5,2.89C288.58008,190.17,316.75,234.63,316.75,285.21Z"></path><path fill="#b72732" d="M316.75,285.21c0,50.58-28.16992,95.05005-70.75,120.63-1.6499.99-3.32007,1.96-5.01,2.89-45.34985-25.05-75.74-70.99-75.74-123.52S195.64014,186.74,241,161.7c1.68994.94,3.3501,1.9,5,2.89C288.58008,190.17,316.75,234.63,316.75,285.21Z"></path><path fill="#e5303e" d="M394.19245,147.53916a14.57425,14.57425,0,0,1-10.682-11.96946,51.81818,51.81818,0,0,1,.22159-15.54105c3.881-23.32032,22.15192-35.06742,25.0382-36.8618A66.344,66.344,0,0,0,375.386,92.20843,70.80063,70.80063,0,0,0,361.36462,103.42c-2.39946-8.24868-6.3779-15.2664-11.36462-20.24615-4.98672,4.97975-8.96516,11.99747-11.36462,20.24615A70.80063,70.80063,0,0,0,324.614,92.20843a66.344,66.344,0,0,0-33.38426-9.04158c2.88628,1.79438,21.15722,13.54148,25.0382,36.8618a51.81818,51.81818,0,0,1,.22159,15.54105,14.57425,14.57425,0,0,1-10.682,11.96946C241.875,165.18928,195.25,220.14371,195.25,285.21124c0,79.32024,69.284,143.62191,154.75,143.62191s154.75-64.30167,154.75-143.62191C504.75,220.14371,458.125,165.18928,394.19245,147.53916Z"></path><path fill="#fff4ca" d="M316.80171,180.00857c-38.90484,8.41787-72.65131,41.46422-81.65173,80.1083C218.50117,331.6,280.80913,392.4907,349.9961,392.4907c65.03341,0,117.7536-48.92878,117.7539-109.2859.00035-71.483-80.19013-113.16242-143.91019-104.43913Q320.29723,179.25065,316.80171,180.00857Z"></path><ellipse cx="285.725" cy="231.62" fill="#e5303e" rx="13.684" ry="9.458" transform="rotate(-63.06 285.725 231.62)"></ellipse><ellipse cx="268.725" cy="265.62" fill="#e5303e" rx="13.684" ry="9.458" transform="rotate(-63.06 268.725 265.62)"></ellipse><ellipse cx="272.725" cy="307.62" fill="#e5303e" rx="13.684" ry="9.458" transform="rotate(-63.06 272.725 307.62)"></ellipse><ellipse cx="295.725" cy="338.62" fill="#e5303e" rx="13.684" ry="9.458" transform="rotate(-63.06 295.725 338.62)"></ellipse><ellipse cx="332.725" cy="357.62" fill="#e5303e" rx="13.684" ry="9.458" transform="rotate(-63.06 332.725 357.62)"></ellipse><ellipse cx="380.725" cy="357.62" fill="#e5303e" rx="13.684" ry="9.458" transform="rotate(-63.06 380.725 357.62)"></ellipse><ellipse cx="420.725" cy="325.62" fill="#e5303e" rx="13.684" ry="9.458" transform="rotate(-63.06 420.725 325.62)"></ellipse><ellipse cx="430.725" cy="284.62" fill="#e5303e" rx="13.684" ry="9.458" transform="rotate(-63.06 430.725 284.62)"></ellipse><ellipse cx="419.725" cy="251.62" fill="#e5303e" rx="13.684" ry="9.458" transform="rotate(-63.06 419.725 251.62)"></ellipse><ellipse cx="387.725" cy="227.62" fill="#e5303e" rx="13.684" ry="9.458" transform="rotate(-63.06 387.724 227.62)"></ellipse><ellipse cx="354.725" cy="218.62" fill="#e5303e" rx="13.684" ry="9.458" transform="rotate(-63.06 354.725 218.62)"></ellipse><ellipse cx="320.725" cy="220.62" fill="#e5303e" rx="13.684" ry="9.458" transform="rotate(-63.06 320.725 220.62)"></ellipse><ellipse cx="313.725" cy="265.62" fill="#e5303e" rx="13.684" ry="9.458" transform="rotate(-63.06 313.725 265.62)"></ellipse><ellipse cx="354.725" cy="265.62" fill="#e5303e" rx="13.684" ry="9.458" transform="rotate(-63.06 354.725 265.62)"></ellipse><ellipse cx="320.725" cy="302.62" fill="#e5303e" rx="13.684" ry="9.458" transform="rotate(-63.06 320.725 302.62)"></ellipse><ellipse cx="354.725" cy="313.62" fill="#e5303e" rx="13.684" ry="9.458" transform="rotate(-63.06 354.725 313.62)"></ellipse><ellipse cx="388.725" cy="314.62" fill="#e5303e" rx="13.684" ry="9.458" transform="rotate(-63.06 388.725 314.62)"></ellipse><ellipse cx="385.725" cy="272.62" fill="#e5303e" rx="13.684" ry="9.458" transform="rotate(-63.06 385.725 272.62)"></ellipse><path fill="#b72732" d="M162.25586,169.50928a50.81479,50.81479,0,0,1-18.13037-3.30957,7.5,7.5,0,0,1,5.3291-14.02149,36.59311,36.59311,0,0,0,14.10986,2.3086,35.30534,35.30534,0,0,0,11.9253-2.44776,7.5,7.5,0,0,1,5.54,13.93946,50.24794,50.24794,0,0,1-16.96436,3.5Q163.1587,169.50927,162.25586,169.50928Z"></path></svg>