<svg xmlns="http://www.w3.org/2000/svg" data-name="Layer 1" viewBox="0 0 512 512" id="pumpkin"><path fill="#f7991d" d="M178.18994 152.91992v270A50.00442 50.00442 0 0 1 133.78 472.60986a49.04238 49.04238 0 0 1-5.59009.31006c-40.10986 0-77.93994-24.81982-96.98-59.75-21.3-39.06982-26.55-90.34985-22.3999-133.90991C14.06006 223.99 34.49 165.83 86.18994 138.43994a133.02743 133.02743 0 0 1 62-15.52c.3501 0 .68994.01 1.04.03A29.98235 29.98235 0 0 1 178.18994 152.91992zM463.3501 443.64014A113.472 113.472 0 0 1 387.46 472.91992a49.94834 49.94834 0 0 1-50-50v-270A29.9834 29.9834 0 0 1 363.27 123.22a29.01217 29.01217 0 0 1 4.18994-.3 133.46539 133.46539 0 0 1 85.12012 30.8c20.74 17.29 34.34985 40.75 41.56982 66.58008 5.71 20.41992 7.76 41.65991 9.04 62.82007C506.46 337.12988 506.8999 404.14014 463.3501 443.64014z"></path><path fill="#37b678" d="M272.09178,136.66668H241.75829c2.90356-4.19165,19.49-29.0094,12.66674-62-6.65454-32.17444-30.64746-48.29931-35.08374-51.16662q33.04176-.08332,66.08374-.16675a130.87363,130.87363,0,0,1-13.33325,113.33337Z"></path><path fill="#e37626" d="M398.37012,456.76a112.57736,112.57736,0,0,1-19.47022,15.42993,50.01472,50.01472,0,0,1-41.43994-49.27v-270A29.9834,29.9834,0,0,1,363.27,123.22a131.70986,131.70986,0,0,1,24.33008,17.53c20.74,18.84,34.34985,44.40991,41.56982,72.57007,5.71,22.25,7.77,45.40991,9.05,68.47C441.48,340.65991,441.91992,413.7,398.37012,456.76Z"></path><path fill="#faa827" d="M302.47853,488.66669c27.91411,0,55.21255-11.46767,75.89068-31.91007,43.54869-43.05221,43.11126-116.09713,39.8462-174.97024-1.27894-23.061-3.33706-46.2194-9.04246-68.46974-7.221-28.16122-20.83418-53.72507-41.56913-72.5715-23.78114-21.61516-54.16515-33.57846-85.1254-33.57846-16.5686,0-30,14.64036-30,32.7v294.3C252.47842,464.26623,274.86417,488.66669,302.47853,488.66669Z"></path><path fill="#e37626" d="M178.18994,152.91992v270A50.00442,50.00442,0,0,1,133.78,472.60986,112.64894,112.64894,0,0,1,113.62988,456.76C70.08008,413.7,70.52,340.65991,73.78,281.79c1.28-23.06006,3.34009-46.22,9.05-68.47,7.22-28.16016,20.82983-53.7301,41.56982-72.57007A131.15876,131.15876,0,0,1,149.23,122.95,29.98235,29.98235,0,0,1,178.18994,152.91992Z"></path><path fill="#faa827" d="M209.52147,488.66669c-27.91411,0-55.21255-11.46767-75.89068-31.91007C90.0821,413.70441,90.51953,340.65949,93.78459,281.78638c1.27894-23.061,3.33706-46.2194,9.04246-68.46974,7.221-28.16122,20.83418-53.72507,41.56913-72.5715,23.78114-21.61516,54.16515-33.57846,85.1254-33.57846,16.5686,0,30,14.64036,30,32.7v294.3C259.52158,464.26623,237.13583,488.66669,209.52147,488.66669Z"></path><ellipse cx="236" cy="297.917" fill="#e37626" rx="71.5" ry="190.75"></ellipse><ellipse cx="276" cy="297.917" fill="#e37626" rx="71.5" ry="190.75"></ellipse><ellipse cx="256" cy="297.917" fill="#f7991d" rx="71.5" ry="190.75"></ellipse></svg>