<svg xmlns="http://www.w3.org/2000/svg" data-name="Layer 1" viewBox="0 0 512 512" id="quince"><path fill="#fdd402" d="M352.355,327.91589a170.60178,170.60178,0,0,1-67.51,136.11987,41.7762,41.7762,0,0,0-8.27,8.37012,39.88158,39.88158,0,0,0-5.56006,10.35,38.60933,38.60933,0,0,1-16.29,19.95c-.95.58-1.92993,1.12-2.92993,1.61a38.49637,38.49637,0,0,1-17.23,4.06006H128.165a38.74591,38.74591,0,0,1-36.44995-25.62A41.09169,41.09169,0,0,0,77.885,464.03576a171.02268,171.02268,0,0,1,34.1399-292.46,40.02533,40.02533,0,0,0,17.67016-15.53l12.74-20.51a40.56765,40.56765,0,0,1,34.45-19.15991h8.96a40.56764,40.56764,0,0,1,34.45,19.15991l12.74,20.51a40.02533,40.02533,0,0,0,17.67016,15.53A171.0134,171.0134,0,0,1,352.355,327.91589Z"></path><path fill="#37b678" d="M128.34479,65.13318a70.528,70.528,0,0,0,58.69066-2.99694,70.69568,70.69568,0,0,0-100.42563-42.696A70.56668,70.56668,0,0,0,128.34479,65.13318Z"></path><path fill="#00a653" d="M187.03394,69.63805a7.487,7.487,0,0,1-2.7168-.51171L129.93628,47.97741a7.50033,7.50033,0,0,1,5.4375-13.98047l54.38086,21.14893a7.5014,7.5014,0,0,1-2.7207,14.49218Z"></path><path fill="#b28966" d="M182.85523,165.87634a7.5009,7.5009,0,0,1-7.44531-6.6792,356.093,356.093,0,0,1-1.79-51.3833h0s.09082-2.5752.2041-4.86963c1.2793-25.76514,13.74316-65.51709,23.97363-94.32813a7.49979,7.49979,0,1,1,14.13477,5.01953c-9.89356,27.86377-21.9375,66.10547-23.126,90.05225-.10937,2.186-.19531,4.64062-.19629,4.65625a340.86571,340.86571,0,0,0,1.71,49.21045,7.5007,7.5007,0,0,1-6.63379,8.27637A7.589,7.589,0,0,1,182.85523,165.87634Z"></path><path fill="#fbbf13" d="M181.34937 165.90026a53.93381 53.93381 0 0 1-19.13379-3.5083 7.49968 7.49968 0 1 1 5.29883-14.03223 39.02678 39.02678 0 0 0 27.69531.002A7.49993 7.49993 0 1 1 200.52027 162.39a53.98648 53.98648 0 0 1-17.41406 3.48193C182.52027 165.891 181.93335 165.90026 181.34937 165.90026zM342.45508 385.37585a171.26252 171.26252 0 0 1-57.6101 78.65991 41.7762 41.7762 0 0 0-8.27 8.37012 39.88158 39.88158 0 0 0-5.56006 10.35 38.60933 38.60933 0 0 1-16.29 19.95c-.95.58-1.92993 1.12-2.92993 1.61A193.81887 193.81887 0 0 1 111.105 385.37585z"></path><path fill="#fff4ca" d="M141.105,385.37585h360.52a193.58808,193.58808,0,0,1-360.52,0Z"></path><path fill="#58565d" d="M332.41421,426.43423c6.16949-4.0658,9.25826-22.12374,9.25826-22.12374s-17.81234-4.28375-23.98182-.218a13.37847,13.37847,0,1,0,14.72356,22.34169Z"></path></svg>