<svg xmlns="http://www.w3.org/2000/svg" data-name="Layer 1" viewBox="0 0 512 512" id="sapodilla"><path fill="#8b6847" d="M163 502a7.49974 7.49974 0 0 1-7.5-7.5v-13a7.5 7.5 0 0 1 15 0v13A7.49974 7.49974 0 0 1 163 502zM172 112.5H145a52.553 52.553 0 0 0 8-24 53.361 53.361 0 0 0-8-32q17.50013-2.91669 35-5.83334A93.33581 93.33581 0 0 1 172 112.5z"></path><path fill="#b28966" d="M309.17993,310.87c-7.2,32.35-26.10986,87.72-58.19995,126.6-1.54,1.87-3.10986,3.7-4.73,5.49-19.01,21.22-42.34009,36.46-70.26,38.39C96.79,486.81,35.81006,381.33,17.95,310.87,11.39014,285-10.3,201.75,39.26,147.5,77.85986,105.25,137.24,105.07,162,105c16-.05,47.42993-.14,78.28,11.85,1.68994.65,3.37988,1.35,5.07007,2.08a119.28019,119.28019,0,0,1,40.74,28.57C334.3999,199.98,316.18994,279.35,309.17993,310.87Z"></path><path fill="#8b6847" d="M309.17993,310.87c-7.2,32.35-26.10986,87.72-58.19995,126.6-1.54,1.87-3.10986,3.7-4.73,5.49-35.84009-35.97-61.68994-90.22-72.3-132.09C167.3999,285.05,145.76,201.98,195.26,147.5c13.32007-14.67,29.11011-24.3,45.02-30.65,1.68994.65,3.37988,1.35,5.07007,2.08a119.28019,119.28019,0,0,1,40.74,28.57C334.3999,199.98,316.18994,279.35,309.17993,310.87Z"></path><path fill="#ffdaa7" d="M495.17578,310.8717c-11.64624,52.345-53.96167,165.00745-133.18286,170.47413C282.79175,486.81122,221.8125,381.3327,203.94922,310.8717c-6.54639-25.82208-28.19019-108.8872,21.30908-163.371C263.19189,105.74722,321.07275,104.74689,345,104.33334c23.01855-.39782,86.31665-1.49179,127.09082,43.16733C520.26685,200.26691,502.27051,278.9837,495.17578,310.8717Z"></path><ellipse cx="349" cy="260" fill="#fdc475" rx="19.5" ry="108.5"></ellipse><ellipse cx="349" cy="250" fill="#58565d" rx="19.5" ry="108.5"></ellipse><path fill="#3c3b41" d="M349.5,250c0-39.58191,3.81006-74.20813,9.5-93.15869C356.07593,147.10272,352.65576,141.5,349,141.5c-10.76953,0-19.5,48.57709-19.5,108.5s8.73047,108.5,19.5,108.5c3.65576,0,7.07593-5.60272,10-15.34131C353.31006,324.20813,349.5,289.58191,349.5,250Z"></path></svg>