<svg xmlns="http://www.w3.org/2000/svg" data-name="Layer 1" viewBox="0 0 512 512" id="star-fruit"><path fill="#b28966" d="M166.71126,106.50237a7.5017,7.5017,0,0,1-7.042-4.91943c-3.24316-8.84229-9.73242-32.21534.01856-58.21631A84.1691,84.1691,0,0,1,189.35091,4.89739a7.50007,7.50007,0,1,1,8.71875,12.20605,69.24528,69.24528,0,0,0-24.33691,31.53077c-7.98828,21.29931-2.64746,40.5122.01855,47.78369a7.50461,7.50461,0,0,1-7.04,10.08447Z"></path><path fill="#fdd402" d="M308.01351,290.50042c0,89.76-26.66016,166.85-64.75,200.27a85.09734,85.09734,0,0,1-8.43018,6.55c-10.66992,7.25-22.08984,11.18-33.9497,11.18-59.16016,0-107.13037-97.6-107.13037-218s47.97021-218,107.13037-218c53.33984,0,97.58984,79.34,105.77,183.2q.58446,7.29.91992,14.75Q308.00863,280.35039,308.01351,290.50042Z"></path><ellipse cx="120.004" cy="290.5" fill="#fdd402" rx="111.946" ry="218"></ellipse><ellipse cx="162.854" cy="290.5" fill="#fbbf13" rx="95" ry="218"></ellipse><ellipse cx="162.854" cy="290.5" fill="#fdde47" rx="69.096" ry="218"></ellipse><path fill="#fbbf13" d="M308.01351,290.50042c0,89.76-26.66016,166.85-64.75,200.27a85.09734,85.09734,0,0,1-8.43018,6.55,94.93554,94.93554,0,0,1,21.07032-89.22,106.17853,106.17853,0,0,1-72.41016-70.98,99.23131,99.23131,0,0,1,100.39014-14.3,121.78638,121.78638,0,0,1,11.31982-47.58,120.40063,120.40063,0,0,1,11.4502-19.54q.58446,7.29.91992,14.75Q308.00863,280.35039,308.01351,290.50042Z"></path><path fill="#fdde47" d="M313.88321,322.81818a121.5283,121.5283,0,0,1,45.13373-90.803,147.90724,147.90724,0,0,1,44.6196,91.05659,110.88114,110.88114,0,0,1,100.30536,14.8649,113.873,113.873,0,0,1-72.81169,70.5737,94.70393,94.70393,0,0,1,16.85907,99.98993,108.6886,108.6886,0,0,1-57.415-16.224,107.36944,107.36944,0,0,1-32.2047-31.21559,98.08392,98.08392,0,0,1-31.425,32.08723c-24.63148,15.5265-49.18592,15.37658-58.46156,14.84511A94.99848,94.99848,0,0,1,285.9069,408.1a106.11613,106.11613,0,0,1-72.41162-70.98414,99.27356,99.27356,0,0,1,100.38793-14.29768Z"></path></svg>