<svg xmlns="http://www.w3.org/2000/svg" data-name="Layer 1" viewBox="0 0 512 512" id="strawberry"><path fill="#e5303e" d="M409.97,336.86c-18.18,44.68-44.17,85.85-75.28,122.61-9.93,11.72-20.51,23.26-33.84,31.96-14.49,9.45-29.53,13.4-44.14,13.06a76.57237,76.57237,0,0,1-14.09-1.66,84.50351,84.50351,0,0,1-14.62-4.5,104.91014,104.91014,0,0,1-35.49-24.58c-64.45-66.96-112-159.03-120.55-252.5-4.22-46.19,11.51-89.23,43.63-114.24,18.08-14.08,41.35-22.45,69.17-22.45H328.64c23.91,0,45.27,6.33,62.79,17.57C420.85,121,439.44,153.69,441.12,193.44,443.1,240.37,427.52,293.76,409.97,336.86Z"></path><path fill="#00a653" d="M252.74219,84.01074A7.50433,7.50433,0,0,1,245.7583,73.7793a87.14562,87.14562,0,0,0,.00049-63.541,7.5,7.5,0,1,1,13.9707-5.46094A102.14891,102.14891,0,0,1,259.73,79.23828,7.50321,7.50321,0,0,1,252.74219,84.01074Z"></path><path fill="#fbbf13" d="M154.5 161a7.50006 7.50006 0 0 1-7.5-7.5v-11a7.5 7.5 0 0 1 15 0v11A7.50006 7.50006 0 0 1 154.5 161zM195.5 131a7.50006 7.50006 0 0 1-7.5-7.5v-11a7.5 7.5 0 0 1 15 0v11A7.50006 7.50006 0 0 1 195.5 131zM316.5 161a7.50006 7.50006 0 0 1-7.5-7.5v-11a7.5 7.5 0 0 1 15 0v11A7.50006 7.50006 0 0 1 316.5 161zM357.5 131a7.50006 7.50006 0 0 1-7.5-7.5v-11a7.5 7.5 0 0 1 15 0v11A7.50006 7.50006 0 0 1 357.5 131zM397.5 161a7.50006 7.50006 0 0 1-7.5-7.5v-11a7.5 7.5 0 0 1 15 0v11A7.50006 7.50006 0 0 1 397.5 161zM114.5 212a7.50006 7.50006 0 0 1-7.5-7.5v-11a7.5 7.5 0 0 1 15 0v11A7.50006 7.50006 0 0 1 114.5 212zM154.5 242a7.50006 7.50006 0 0 1-7.5-7.5v-11a7.5 7.5 0 0 1 15 0v11A7.50006 7.50006 0 0 1 154.5 242zM195.5 212a7.50006 7.50006 0 0 1-7.5-7.5v-11a7.5 7.5 0 0 1 15 0v11A7.50006 7.50006 0 0 1 195.5 212zM316.5 242a7.50006 7.50006 0 0 1-7.5-7.5v-11a7.5 7.5 0 0 1 15 0v11A7.50006 7.50006 0 0 1 316.5 242zM357.5 212a7.50006 7.50006 0 0 1-7.5-7.5v-11a7.5 7.5 0 0 1 15 0v11A7.50006 7.50006 0 0 1 357.5 212zM397.5 242a7.50006 7.50006 0 0 1-7.5-7.5v-11a7.5 7.5 0 0 1 15 0v11A7.50006 7.50006 0 0 1 397.5 242zM114.5 283a7.50006 7.50006 0 0 1-7.5-7.5v-11a7.5 7.5 0 0 1 15 0v11A7.50006 7.50006 0 0 1 114.5 283zM154.5 313a7.50006 7.50006 0 0 1-7.5-7.5v-11a7.5 7.5 0 0 1 15 0v11A7.50006 7.50006 0 0 1 154.5 313zM195.5 283a7.50006 7.50006 0 0 1-7.5-7.5v-11a7.5 7.5 0 0 1 15 0v11A7.50006 7.50006 0 0 1 195.5 283zM316.5 313a7.50006 7.50006 0 0 1-7.5-7.5v-11a7.5 7.5 0 0 1 15 0v11A7.50006 7.50006 0 0 1 316.5 313zM357.5 283a7.50006 7.50006 0 0 1-7.5-7.5v-11a7.5 7.5 0 0 1 15 0v11A7.50006 7.50006 0 0 1 357.5 283zM397.5 313a7.50006 7.50006 0 0 1-7.5-7.5v-11a7.5 7.5 0 0 1 15 0v11A7.50006 7.50006 0 0 1 397.5 313zM154.5 384a7.50006 7.50006 0 0 1-7.5-7.5v-11a7.5 7.5 0 0 1 15 0v11A7.50006 7.50006 0 0 1 154.5 384zM195.5 354a7.50006 7.50006 0 0 1-7.5-7.5v-11a7.5 7.5 0 0 1 15 0v11A7.50006 7.50006 0 0 1 195.5 354zM316.5 384a7.50006 7.50006 0 0 1-7.5-7.5v-11a7.5 7.5 0 0 1 15 0v11A7.50006 7.50006 0 0 1 316.5 384zM357.5 354a7.50006 7.50006 0 0 1-7.5-7.5v-11a7.5 7.5 0 0 1 15 0v11A7.50006 7.50006 0 0 1 357.5 354zM195.5 425a7.50006 7.50006 0 0 1-7.5-7.5v-11a7.5 7.5 0 0 1 15 0v11A7.50006 7.50006 0 0 1 195.5 425zM235.5 245a7.50006 7.50006 0 0 1-7.5-7.5v-11a7.5 7.5 0 0 1 15 0v11A7.50006 7.50006 0 0 1 235.5 245zM235.5 316a7.50006 7.50006 0 0 1-7.5-7.5v-11a7.5 7.5 0 0 1 15 0v11A7.50006 7.50006 0 0 1 235.5 316zM276.5 286a7.50006 7.50006 0 0 1-7.5-7.5v-11a7.5 7.5 0 0 1 15 0v11A7.50006 7.50006 0 0 1 276.5 286zM235.5 377a7.50006 7.50006 0 0 1-7.5-7.5v-11a7.5 7.5 0 0 1 15 0v11A7.50006 7.50006 0 0 1 235.5 377zM276.5 347a7.50006 7.50006 0 0 1-7.5-7.5v-11a7.5 7.5 0 0 1 15 0v11A7.50006 7.50006 0 0 1 276.5 347zM235.5 448a7.50006 7.50006 0 0 1-7.5-7.5v-11a7.5 7.5 0 0 1 15 0v11A7.50006 7.50006 0 0 1 235.5 448zM276.5 418a7.50006 7.50006 0 0 1-7.5-7.5v-11a7.5 7.5 0 0 1 15 0v11A7.50006 7.50006 0 0 1 276.5 418zM243 490.5v10a7.20307 7.20307 0 0 1-.38 2.33 84.50351 84.50351 0 0 1-14.62-4.5V490.5a7.5 7.5 0 0 1 15 0zM276.5 479a7.50006 7.50006 0 0 1-7.5-7.5v-11a7.5 7.5 0 0 1 15 0v11A7.50006 7.50006 0 0 1 276.5 479zM316.5 455a7.50006 7.50006 0 0 1-7.5-7.5v-11a7.5 7.5 0 0 1 15 0v11A7.50006 7.50006 0 0 1 316.5 455z"></path><path fill="#b72732" d="M401.37,119.69c-17.16,14.97-59.36,15.48-82.69,8.3-20.02-6.15-47.28-24.44-58.32995-43.43h68.29c23.91,0,45.27,6.33,62.79,17.57C396.26,107.9,399.82,113.86,401.37,119.69Z"></path><path fill="#37b678" d="M318.6762,107.99352c-23.3386-7.1741-56.52239-30.85372-62.38856-52.90329,17.15748-14.97229,57.85856-15.9403,81.19716-8.76621s58.02073,31.3143,63.8869,53.36387C384.21421,114.66018,342.0148,115.16762,318.6762,107.99352Z"></path><path fill="#b72732" d="M251.93,84.56c-11.4,18.75-38.72,36.53-58.72,42.39-23.43,6.86-65.62,5.79-82.58-9.41a38.70818,38.70818,0,0,1,4.96-10.53c18.08-14.08,41.35-22.45,69.17-22.45Z"></path><path fill="#b72732" d="M223.87844,150.20587c0-24.504,12.83812-63.29117,32.12156-75.37785,19.28344,12.08668,32.12156,50.87384,32.12156,75.37785S275.28344,215.0702,256,227.15688C236.71656,215.0702,223.87844,174.70989,223.87844,150.20587Z"></path><path fill="#37b678" d="M175.21316,45.03273c23.43114-6.86334,64.11589-5.35458,81.07448,9.84438-6.15637,21.96969-39.64944,45.2063-63.08058,52.06964S127.58689,112.742,110.6283,97.543C116.78467,75.57331,151.782,51.89608,175.21316,45.03273Z"></path><path fill="#00a653" d="M223.87844,130.20587c0-24.504,12.83812-63.29117,32.12156-75.37785,19.28344,12.08668,32.12156,50.87384,32.12156,75.37785S275.28344,195.0702,256,207.15688C236.71656,195.0702,223.87844,154.70989,223.87844,130.20587Z"></path></svg>