<svg xmlns="http://www.w3.org/2000/svg" data-name="Layer 1" viewBox="0 0 512 512" id="sugarcane"><path fill="#75bf44" d="M373.15 108.78321c-3.06527-.90828 5.301 33.88181-.38282 78.73592-4.54686 35.88309-17.1328 63.86377-26.26773 79.49275a198.48319 198.48319 0 0 1-41.07285 49.49177c3.4715-1.08 8.40545-2.73979 14.1717-5.12456 25.61673-10.59394 48.7125-27.66194 60.56016-42.1142C425.04266 214.51367 380.03484 110.82326 373.15 108.78321zM475.91505 287.80822c-2.04736-2.45544-14.37436 31.13607-43.97405 65.31288-23.67949 27.3414-49.6677 43.649-65.93548 51.59075a198.48309 198.48309 0 0 1-61.62233 18.41473c3.48787 1.026 8.51423 2.38034 14.63523 3.59283 27.19246 5.38688 55.87651 3.9882 73.74942-1.4702C460.47818 404.57073 480.51363 293.32331 475.91505 287.80822zM143.66317 7.50125c3.18-.329-11.44272 32.32864-14.1063 77.46291-2.131 36.10719 5.09344 65.92549 11.19774 82.96808a198.483 198.483 0 0 0 31.26859 56.20221c-3.2136-1.70016-7.75808-4.23913-12.98729-7.64384-23.231-15.1251-42.79325-36.15008-51.78043-52.535C73.208 101.88262 136.52053 8.24009 143.66317 7.50125zM39.45434 142.73554c2.59283-1.8703 6.19474 33.72985 26.38331 74.185 16.15063 32.364 37.27686 54.61273 51.06381 66.3444a198.48293 198.48293 0 0 0 55.12174 33.13621c-3.63338.128-8.83862.19214-15.069-.15289-27.67852-1.53237-55.11739-10.00818-71.07573-19.7327C25.42129 259.67508 33.63058 146.93638 39.45434 142.73554z"></path><path fill="#75bf44" d="M212.03027,414.00122v89.5h-42l.18946-74.05.04-15.3999.23046-89.48.04-15.54.19971-78.36011.04-15.6499.23975-96.52,41-11v123.28q0,39.75.01025,78.22v15.77Q212.02,370.25115,212.03027,414.00122Z"></path><path fill="#5dae47" d="M212.03027 414.00122v15.77a52.05489 52.05489 0 0 1-20.5205 4.23h-.58985a52.4769 52.4769 0 0 1-20.70019-4.55l.04-15.3999a7.44554 7.44554 0 0 1 4.20019.78991 37.00126 37.00126 0 0 0 34.1001 0A7.58339 7.58339 0 0 1 212.03027 414.00122zM212.03027 309.00122v15.77H212.02a52.04143 52.04143 0 0 1-20.51025 4.23h-.58985a52.53812 52.53812 0 0 1-20.42969-4.42993l.04-15.54a7.32344 7.32344 0 0 1 3.92969.80993 37.00126 37.00126 0 0 0 34.1001 0 7.54383 7.54383 0 0 1 3.46-.84zM212.03027 215.00122v15.77c-.01025 0-.01025.01-.0205.01a51.99756 51.99756 0 0 1-20.5 4.22h-.58985A52.42667 52.42667 0 0 1 170.73 230.67114l.04-15.6499a7.39026 7.39026 0 0 1 3.68994.81994 37.00126 37.00126 0 0 0 34.1001 0 7.50438 7.50438 0 0 1 3.44971-.84z"></path><rect width="41" height="447" x="263.38" y="57.501" fill="#75bf44"></rect><path fill="#5dae47" d="M304.37988 204.00122v15.82995a51.96194 51.96194 0 0 1-20.37011 4.17005h-.58985a52.40438 52.40438 0 0 1-20.04-4.27v-15.71a7.41753 7.41753 0 0 1 3.58008.81994 37.00126 37.00126 0 0 0 34.1001 0A7.49436 7.49436 0 0 1 304.37988 204.00122zM263.38 309.02122a7.418 7.418 0 0 1 3.58.82 37.00139 37.00139 0 0 0 34.1 0 7.494 7.494 0 0 1 3.32-.84v15.83a51.96422 51.96422 0 0 1-20.37 4.17h-.59a52.40132 52.40132 0 0 1-20.04-4.27zM304.37988 414.00122v15.82995a51.96194 51.96194 0 0 1-20.37011 4.17005h-.58985a52.40438 52.40438 0 0 1-20.04-4.27v-15.71a7.41753 7.41753 0 0 1 3.58008.81994 37.00126 37.00126 0 0 0 34.1001 0A7.49436 7.49436 0 0 1 304.37988 414.00122z"></path></svg>