<svg xmlns="http://www.w3.org/2000/svg" data-name="Layer 1" viewBox="0 0 512 512" id="surinam-cherry"><path fill="#00a653" d="M120.99414,279.002a7.50353,7.50353,0,0,1-6.69824-10.86425,234.54933,234.54933,0,0,0,24.71484-117.23731c-3.61719-67.63965-36.1709-115.85547-55.2539-138.57715A7.49984,7.49984,0,0,1,95.24316,2.67676c20.28711,24.15429,54.89551,75.42676,58.7461,147.42285A249.58681,249.58681,0,0,1,127.7041,274.8623,7.501,7.501,0,0,1,120.99414,279.002Z"></path><path fill="#00a653" d="M363.49512,285a7.5006,7.5006,0,0,1-7.49024-7.22363c-1.05761-28.72266-7.98828-71.53223-34.99511-112.36524C257.42578,69.27539,136.04688,65.15332,122.415,64.999a7.49975,7.49975,0,0,1,.083-14.999c.02929,0,.05761,0,.08691.001,9.55567.10742,43.90723,1.48828,84.708,14.74121,55.03125,17.875,97.501,48.96,126.22851,92.39355,22.89649,34.62012,35.8545,76.14551,37.47364,120.08789a7.50062,7.50062,0,0,1-7.21875,7.77149C363.68164,284.99805,363.58789,285,363.49512,285Z"></path><path fill="#37b678" d="M96.642,100.518c11.46818-36.07538,6.9365-69.49469-9.51752-93.10279C54.364,27.40282,26.97877,60.181,14.84539,98.34889c-11.4682,36.07544-6.9365,69.49469,9.51752,93.10279C57.12345,171.464,84.50863,138.68587,96.642,100.518Z"></path><path fill="#00a653" d="M34.84521,98.34888C45.1792,65.84229,66.5791,37.25171,92.9375,17.136a82.57658,82.57658,0,0,0-5.813-9.72083c-32.76074,19.98767-60.146,52.76575-72.2793,90.93372C3.377,134.42432,7.90869,167.84351,24.36279,191.45166a165.396,165.396,0,0,0,14.187-9.7207C27.00439,159.08154,24.87207,129.72144,34.84521,98.34888Z"></path><path fill="#00a653" d="M56.39844,113.55469a7.50663,7.50663,0,0,1-7.16211-9.73242L79.96387,5.18457A7.49952,7.49952,0,1,1,94.28418,9.64551L63.55664,108.2832A7.50269,7.50269,0,0,1,56.39844,113.55469Z"></path><path fill="#e5303e" d="M90.1252,351.5c0,44.50871-18.38435,72.44973-41.0626,72.44973S8,396.00871,8,351.5s18.38435-80.59015,41.0626-80.59015S90.1252,306.99129,90.1252,351.5Z"></path><path fill="#ee4267" d="M125.3605,351.5c0,44.50871-18.38435,72.44973-41.0626,72.44973S43.2353,396.00871,43.2353,351.5s18.38435-80.59015,41.0626-80.59015S125.3605,306.99129,125.3605,351.5Z"></path><path fill="#e5303e" d="M222,351.5c0,44.50871-18.38435,72.44973-41.0626,72.44973s-41.0626-27.941-41.0626-72.44973,18.38435-80.59015,41.0626-80.59015S222,306.99129,222,351.5Z"></path><path fill="#ee4267" d="M186.7647,351.5c0,44.50871-18.38435,72.44973-41.0626,72.44973s-41.0626-27.941-41.0626-72.44973,18.38435-80.59015,41.0626-80.59015S186.7647,306.99129,186.7647,351.5Z"></path><ellipse cx="114.186" cy="347.205" fill="#e5303e" rx="35" ry="76.295"></ellipse><path fill="#e5303e" d="M372.25882,349.14309c13.64842,42.36445,4.71775,74.59686-16.86794,81.55105s-47.65236-14.00324-61.30077-56.36769-7.214-82.3451,14.37171-89.29929S358.6104,306.77865,372.25882,349.14309Z"></path><path fill="#ee4267" d="M405.79661,338.33833c13.64842,42.36445,4.71776,74.59686-16.86794,81.55105s-47.65235-14.00324-61.30077-56.36769-7.214-82.3451,14.37171-89.29929S392.1482,295.97388,405.79661,338.33833Z"></path><path fill="#e5303e" d="M497.78037,308.70422c13.64842,42.36445,4.71775,74.59686-16.86794,81.551s-47.65236-14.00324-61.30077-56.36769-7.214-82.3451,14.37171-89.29929S484.132,266.33977,497.78037,308.70422Z"></path><path fill="#ee4267" d="M464.24258,319.509c13.64841,42.36445,4.71775,74.59686-16.86794,81.551s-47.65236-14.00324-61.30077-56.36769-7.214-82.3451,14.37171-89.29929S450.59416,277.14454,464.24258,319.509Z"></path><ellipse cx="393.843" cy="337.677" fill="#e5303e" rx="35" ry="76.295" transform="rotate(-17.857 393.843 337.677)"></ellipse></svg>