<svg xmlns="http://www.w3.org/2000/svg" data-name="Layer 1" viewBox="0 0 512 512" id="tamarind"><path fill="#74563a" d="M403.02344 106.86035a7.50556 7.50556 0 0 1-7.31055-9.207 77.42176 77.42176 0 0 0-7.28516-54.53711 7.50035 7.50035 0 0 1 13.19532-7.13476 92.431 92.431 0 0 1 8.69726 65.083A7.50314 7.50314 0 0 1 403.02344 106.86035zM347.10254 106.314a7.502 7.502 0 0 1-6.2041-11.70556 77.43385 77.43385 0 0 0 12.70019-53.53613 7.49974 7.49974 0 1 1 14.873-1.94336 92.42078 92.42078 0 0 1-15.15137 63.88867A7.49347 7.49347 0 0 1 347.10254 106.314z"></path><path fill="#74563a" d="M375.57422,48.22412a131.94948,131.94948,0,0,1-17.53613-1.17187c-33.94629-4.54541-58.44434-20.97168-73.01758-33.95166a7.5,7.5,0,1,1,9.97656-11.20118c13.00781,11.58545,34.84961,26.24414,65.03125,30.28565,45.05176,6.03271,79.66406-15.7627,92.4541-25.41406a7.50042,7.50042,0,0,1,9.03516,11.97461C448.94727,28.229,417.4541,48.22412,375.57422,48.22412Z"></path><path fill="#b28966" d="M371.09176,172.77893c-.90772-15.68664-5.98926-28.38171-14.79151-37.73425A48.72231,48.72231,0,0,0,365,119.5q.03825-.1131.07578-.2259a17.86145,17.86145,0,0,0-11.41267-22.49335l-3.79991-1.2639a14.13684,14.13684,0,0,0-17.94571,9.37113q-.39678,1.28439-.91749,2.612a36.71911,36.71911,0,0,1-7.32519,11.56934,40.03065,40.03065,0,0,0-16.9629,2.93823,50.424,50.424,0,0,0-15.64941,10.75683c-14.749,14.47657-20.84961,33.53345-16.5166,55.96582,2.11963,10.97413.53125,17.803-9.11963,22.84632-17.29346,9.03747-26.72217,25.733-28.043,47.98962-.67871,11.43225-4.78906,15.86939-14.83545,16.06909-21.00049.41724-36.74219,12.24219-44.86523,35.18287-4.28321,12.09716-9.84766,14.16943-19.89063,10.32031-16.47363-6.31446-31.74511-1.88306-45.15381,10.79809-12.00878,11.35657-11.91259,11.49634-23.71045-.63635-15.92041-16.37292-37.93115-19.22766-56.29931-7.30163-17.81494,11.56689-27.62744,34.934-24.57764,58.79394,2.84082,22.22461,13.53516,37.64893,31.13526,45.41785,18.03271,7.95971,34.94873,3.95129,49.80517-10.69556,10.03516-9.89368,11.57324-9.82141,21.42236.46729a58.45876,58.45876,0,0,0,9.83838,8.55041c25.76905,16.90259,56.815,4.17285,69.00245-28.71289,3.86035-10.41638,8.73339-14.385,18.23535-10.01514,4.666,2.14576,9.95215,2.43116,11.98047,2.88794,28.5415.18824,49.06005-21.82763,51.87744-52.33178,1.39013-15.05347,3.14843-16.99732,15.74365-17.40723,30.19971-.98316,52.32275-31.23511,47.01465-66.64185-2.0918-13.95459.20215-20.73584,11.26318-27.12744C363.91305,216.46851,372.48727,196.90173,371.09176,172.77893Z"></path><path fill="#8b6847" d="M18.05078,392.79248c-3.0498-23.86,6.7627-47.22705,24.57764-58.79394,18.36816-11.926,40.3789-9.07129,56.29931,7.30163,11.79786,12.13269,11.70166,11.99292,23.71045.63635,13.4087-12.68115,28.68018-17.11255,45.15381-10.79809,10.043,3.84912,15.60742,1.77685,19.89063-10.32031,8.123-22.94068,23.86474-34.76563,44.86523-35.18287,10.04639-.1997,14.15674-4.63684,14.83545-16.06909,1.3208-22.25659,10.74951-38.95215,28.043-47.98962,9.65088-5.04334,11.23926-11.87219,9.11963-22.84632-4.333-22.43237,1.76758-41.48925,16.5166-55.96582a50.424,50.424,0,0,1,15.64941-10.75683,40.03063,40.03063,0,0,1,16.96289-2.93823A36.71893,36.71893,0,0,0,341,117.5q.52295-1.32569.91748-2.61206a14.137,14.137,0,0,1,17.9458-9.37109l3.79981,1.26391c.35742.11878.69629.26636,1.0415.40528a17.996,17.996,0,0,0-11.0415-10.40528l-3.79981-1.26391a14.137,14.137,0,0,0-17.9458,9.37109q-.397,1.2843-.91748,2.61206a36.71893,36.71893,0,0,1-7.3252,11.56934,40.03063,40.03063,0,0,0-16.96289,2.93823A50.424,50.424,0,0,0,291.0625,132.7644c-14.749,14.47657-20.84961,33.53345-16.5166,55.96582,2.11963,10.97413.53125,17.803-9.11963,22.84632-17.29346,9.03747-26.72217,25.733-28.043,47.98962-.67871,11.43225-4.78906,15.86939-14.83545,16.06909-21.00049.41724-36.74219,12.24219-44.86523,35.18287-4.28321,12.09716-9.84766,14.16943-19.89063,10.32031-16.47363-6.31446-31.74511-1.88306-45.15381,10.79809-12.00879,11.35657-11.91259,11.49634-23.71045-.63635-15.92041-16.37292-37.93115-19.22766-56.29931-7.30163C14.81348,335.56543,5.001,358.9325,8.05078,382.79248c2.25244,17.62354,9.46143,30.95215,21.11817,39.59717C23.3335,414.53613,19.56543,404.64136,18.05078,392.79248Z"></path><path fill="#b28966" d="M444.79932,274.04492c23.06787-19.647,24.26123-53.82617,1.28613-74.21155-9.05469-8.0343-10.86865-14.02038-5.62744-25.25756,8.78711-18.83924,5.07959-37.34-8.83887-52.62513A52.12335,52.12335,0,0,0,418.5,111.37036,35.79371,35.79371,0,0,0,421.5,94.5l-.011-.15518A12.89981,12.89981,0,0,0,408.56479,82.5h-5.114a13.01515,13.01515,0,0,0-12.94545,12.81429q-.00233.09262-.00535.18571a26.1442,26.1442,0,0,1-3,11.30737,57.4516,57.4516,0,0,0-6.36914,1.58716c-18.22022,5.59839-29.55811,18.47058-33.30469,37.06494-3.82226,18.9729,1.5459,35.57715,16.85987,47.88257,7.49169,6.02,9.88232,11.594,5.02539,21.04126-8.70264,16.92871-7.18946,34.04321,3.61474,49.78589,5.54932,8.0863,4.69776,13.6438-3.04394,20.09424-16.18213,13.48376-22.19043,31.3042-16.33594,51.78222,3.08691,10.79847-.15772,15.68555-10.04932,19.4209-16.22656,6.12744-25.79883,18.69849-29.52978,35.626-3.34082,15.15942-3.1919,15.19275-18.85889,14.48144a48.66681,48.66681,0,0,0-47.86084,30.5066,49.39651,49.39651,0,0,0,12.0669,54.84594c14.03759,13.10474,30.59375,16.71509,48.47314,10.854,18.265-5.98731,29.335-19.2479,33.18309-38.3112a16.51006,16.51006,0,0,1,17.01411-13.327,56.46126,56.46126,0,0,0,12.23444-.45678c29.11816-4.87769,46.59961-32.92713,38.63184-62.62378-2.52344-9.4065-.82764-15.12927,8.91845-18.17591,4.78565-1.496,9.0669-4.62878,10.89405-5.5979,22.3955-17.8197,26.71533-45.47155,12.69482-67.681C434.83887,284.64673,435.17871,282.239,444.79932,274.04492Z"></path><path fill="#8b6847" d="M279.71436,490.92651a49.39651,49.39651,0,0,1-12.0669-54.84594A48.66681,48.66681,0,0,1,315.5083,405.574c15.667.71131,15.51807.678,18.85889-14.48144,3.731-16.92749,13.30322-29.49854,29.52978-35.626,9.8916-3.73535,13.13623-8.62243,10.04932-19.4209-5.85449-20.478.15381-38.29846,16.33594-51.78222,7.7417-6.45044,8.59326-12.00794,3.04394-20.09424-10.8042-15.74268-12.31738-32.85718-3.61474-49.78589,4.85693-9.44726,2.4663-15.02124-5.02539-21.04126-15.314-12.30542-20.68213-28.90967-16.85987-47.88257,3.74658-18.59436,15.08447-31.46655,33.30469-37.06494A57.4516,57.4516,0,0,1,407.5,106.80737,26.1442,26.1442,0,0,0,410.5,95.5c.002-.062.00391-.124.00537-.18579A13.18238,13.18238,0,0,1,416.04,84.86328,13.03417,13.03417,0,0,0,408.56494,82.5h-5.11426a13.01506,13.01506,0,0,0-12.94531,12.81421c-.00146.06177-.00342.12378-.00537.18579a26.1442,26.1442,0,0,1-3,11.30737,57.4516,57.4516,0,0,0-6.36914,1.58716c-18.22022,5.59839-29.55811,18.47058-33.30469,37.06494-3.82226,18.9729,1.5459,35.57715,16.85987,47.88257,7.49169,6.02,9.88232,11.594,5.02539,21.04126-8.70264,16.92871-7.18946,34.04321,3.61474,49.78589,5.54932,8.0863,4.69776,13.6438-3.04394,20.09424-16.18213,13.48376-22.19043,31.3042-16.33594,51.78222,3.08691,10.79847-.15772,15.68555-10.04932,19.4209-16.22656,6.12744-25.79883,18.69849-29.52978,35.626-3.34082,15.15942-3.1919,15.19275-18.85889,14.48144a48.66681,48.66681,0,0,0-47.86084,30.5066,49.39651,49.39651,0,0,0,12.0669,54.84594c12.45556,11.62769,26.896,15.76307,42.48193,12.45728C294.18555,501.53857,286.64209,497.39392,279.71436,490.92651Z"></path></svg>